<?xml version="1.0" encoding="utf-8"?>
<!-- Generator: Adobe Illustrator 17.0.0, SVG Export Plug-In . SVG Version: 6.00 Build 0)  -->
<!DOCTYPE svg PUBLIC "-//W3C//DTD SVG 1.1//EN" "http://www.w3.org/Graphics/SVG/1.1/DTD/svg11.dtd">
<svg version="1.1" id="Layer_1" xmlns="http://www.w3.org/2000/svg" xmlns:xlink="http://www.w3.org/1999/xlink" x="0px" y="0px"
	 width="414.555px" height="162.714px" viewBox="0 0 414.555 162.714" enable-background="new 0 0 414.555 162.714"
	 xml:space="preserve">
<path fill="#FFFFFF" d="M252.381,162.261v-0.101l0.251-0.151l0.05,0.151L252.381,162.261z M266.462,144.05
	c0-0.252-0.101-0.302-0.151-0.402c0.05-0.05,0.05-0.251,0.05-0.352c-0.05-0.251-0.151-0.855-0.05-1.308
	c0-0.352-0.05-0.805-0.201-1.107c-0.101-0.352-0.402-0.855-0.402-1.057c0-0.201,0.302-0.453,0.302-0.604
	c0.05-0.553,0-0.956-0.05-1.409c0-0.553-0.101-1.308-0.05-1.962c0.101-0.956,0.252-2.314,0-3.421
	c0.05-0.101,0.252-0.151,0.252-0.352c0-0.252-0.101-0.553-0.151-0.805c-0.05-0.402,0.151-0.855,0.151-1.207
	c-0.101-0.755-0.101-1.811-0.201-2.314c-0.05-0.201-0.151-0.302-0.151-0.503c0-0.201,0.251-0.956,0.302-1.459
	c0.101-0.402-0.151-0.755-0.101-1.107c0.151-0.151,0.352-0.302,0.352-0.553c0-0.251-0.302-0.805-0.503-0.956
	c-0.352-0.252-1.106-0.503-1.308-0.503c-0.654,0-1.006,0.704-1.006,1.056c0,0.252,0.503,0.855,0.503,1.057v8.351
	c-0.302,0.704-0.251,1.358-0.251,1.861c0.05,0.755-0.101,1.559,0.503,2.163c-0.302,0.101-0.453,0.101-0.453,0.503
	c0,0.252,0.101,0.604,0.101,0.906c0,0.201,0.251,0.252,0.251,0.453s-0.151,0.855-0.302,1.157c-0.654-1.006-1.106-2.163-1.861-3.019
	c-0.201-0.201-0.503-0.402-0.553-0.503c-0.503-0.906-1.006-1.761-1.66-2.717c-0.05-0.352-0.805-1.006-1.006-1.358
	c-0.453-0.956-1.257-2.012-1.961-2.918c-0.251-0.654-0.453-1.509-1.257-2.012c0.1-0.352-0.553-1.207-0.654-1.509
	c-0.151-0.553-0.352-1.207-0.553-1.61c-0.201-0.352-1.358-1.509-1.81-1.509c-0.151,0-1.308,0.402-1.308,1.107
	c0,0.201,0.402,2.214,0.503,3.22c0,0.654-0.151,1.207,0.101,1.912c0.151,0.352-0.05,0.755,0,1.107c0,0.201,0.05,0.403,0.201,0.453
	c-0.151,1.861-0.151,3.723-0.101,5.484c0.05,0.201,0.151,0.402,0.151,0.553c-0.101,0.654-0.251,1.56,0.05,2.012
	c0.05,0.05-0.05,0.252-0.05,0.352c0.201,0.101,0.151,0.151,0.151,0.352c0,0.252-0.201,0.956-0.151,1.409
	c-0.101,0.453-0.05,1.006,0,1.56c-0.352,0.402-0.151,0.956-0.151,1.61c0,0.151-0.151,0.352-0.151,0.604
	c0,0.201,0.302,0.503,0.302,0.755c0,0.302-0.101,0.604-0.101,0.805c0.101,0.05,0.252,0.151,0.252,0.402
	c0,0.201-0.402,0.453-0.402,0.654c-0.201,0.956-0.151,2.515-0.151,2.717c0,0.251,0.151,0.201,0.151,0.201
	c-0.151,0.352,0,0.755,0,1.006c0,0.503-0.101,0.956-0.101,1.308c0,0.403-0.151,0.855-0.101,1.207
	c-0.05,0.101-0.101-0.05-0.101,0.201v2.515c0,0.201,0.151,0.402,0.201,0.553c-0.201,0.855-0.402,2.515-0.402,2.717
	c0,0.252,0.302,1.71,0.302,2.314c0.352,0.252,1.358,0.604,1.559,0.604c0.251,0,0.453-0.201,0.603-0.302c0.05-0.252,0-0.402,0-0.604
	c0-0.151,0.151-0.352,0.201-0.453c0.151-1.107-0.201-2.616-0.101-3.421c0.05-0.654,0.151-1.459,0.201-2.063l-0.101-4.578
	c0.101-0.151,0.05-0.453,0-0.654c0-0.201,0.302-0.302,0.302-0.503c0-0.302-0.101-1.107-0.302-1.258
	c0.101-0.101,0.151-0.101,0.151-0.101c0.05-0.453,0.251-1.057,0.251-1.258v-3.471c-0.101-0.402-0.201-0.855-0.302-1.207
	c0-0.101-0.05-0.352-0.101-0.252c-0.101-0.101-0.05-0.151-0.05-0.151c0.151-0.251,0.402-0.453,0.402-0.553
	c0-1.459,0.251-3.521-0.101-4.477c0.05-0.252,0.251-0.453,0.251-0.704c0-0.201-0.05-1.962-0.101-2.918
	c0-0.251-0.302-0.553-0.302-0.755c0-0.201,0.201-0.402,0.251-0.453c0.05-0.855,0.05-1.861,0.101-2.465
	c0.604,0,0.805,0.604,1.056,1.006c0.151,0,0.302,0.05,0.352,0.151c0.101,0.402,0.151,0.956,0.453,1.258
	c0.402,0.402,0.805,0.704,0.905,1.157c0.151,0.654,1.207,1.71,1.207,2.264c0.453,0.302,0.704,0.805,1.056,1.056
	c0.101,0.302,0.553,0.956,0.704,1.107c-0.101,0.251,0.251,0.453,0.402,0.604c-0.05,0.201,0.151,0.453,0.251,0.604
	c0.151,0.101,0.352,0.151,0.402,0.251c-0.302,0.402,0.302,0.906,0.453,1.056c0.151,0.352,0.503,0.906,0.905,1.207
	c0.151,0.05,0.402,0.101,0.503,0.252c0.05,0.251,0.201,0.503,0.352,0.654c0.251,0.402,0.654,0.855,0.905,1.207
	c-0.252,0.352-0.352,1.71-0.352,2.314c0,0.252,0.151,0.805,0.101,1.107c-0.101,0.755,0.05,1.811-0.302,2.264
	c0.201,3.521,0.201,4.377,0.201,5.131c0.201,0.101,0.402,0.151,0.352,0.252c-0.201,0.352-0.352,1.006-0.352,1.207
	c0,0.251,0.151,1.056,0.101,1.509c0.05,0.101,0.151,0.251,0.151,0.352c-0.101,0.302-0.05,0.704-0.101,0.956
	c0.251,0.251,0.101,0.855,0.05,1.056c-0.05,0.352-0.151,0.855-0.101,1.157c0.05,0.503,1.157,1.107,1.509,1.107
	c0.251,0,0.603-0.503,0.805-0.704c-0.402-0.805,0.05-2.012-0.503-2.717c0.201-0.151,0.402-0.252,0.402-0.453
	s-0.251-0.503-0.251-0.654c-0.05-0.654-0.151-1.358-0.05-1.861c-0.101-0.101-0.151,0-0.151-0.251c0-0.201,0.101-0.352,0.201-0.503
	c0.101-0.251-0.101-0.553,0.151-0.805v-9.106l-0.201-0.151c0.201-0.101,0.302-0.251,0.352-0.352
	C266.362,144.502,266.462,144.251,266.462,144.05z"/>
<path fill="#FFFFFF" d="M289.194,133.837c0,0.201-0.151,2.063-0.151,2.918c-0.05,1.861-0.1,3.823-0.1,5.785
	c-0.201,0.553-0.201,1.308-0.251,1.962c-0.05,0.302,0.251,0.704,0.251,1.107c0,0.101-0.201,0.352-0.251,0.553
	c-0.05,0.855,0.05,1.761-0.101,2.666c0.101,0.101,0.352,0.453,0.201,0.704c-0.101,0.201-0.402,0.302-0.402,0.553
	c-0.101,1.207-0.302,2.717-0.704,4.075c-0.05,0.201,0.05,0.503,0,0.654c-0.201,0.604-0.603,1.308-0.352,1.962
	c-0.101,0.101-0.101,0.201-0.151,0.302c-0.503,0.251-0.453,0.855-0.402,1.308c-1.307,0.755-3.973,2.063-4.174,2.063
	c-0.201,0-2.213-0.453-3.219-0.553c-0.201-0.251-0.754-0.553-0.956-0.855c-0.151-0.201-0.151-0.604-0.251-0.855
	c-0.151-0.503-0.402-1.056-0.704-1.409c0.352-0.453-0.05-1.258-0.352-1.56c-0.05-0.201,0-0.402,0.05-0.553
	c-0.251-0.151-0.151-0.503-0.302-0.352c0-0.101,0.05-0.151,0.151-0.252v-0.704c-0.101-0.503-0.251-1.006-0.453-1.308
	c0.201-0.553,0.101-1.006-0.101-1.358c0.05-0.302-0.05-0.805,0-1.258c0-0.101,0.201-0.302,0.201-0.503
	c0.05-0.151-0.05-0.352-0.101-0.503c-0.05-0.252,0.101-0.352-0.101-0.805c0.101,0,0.151-0.101,0.251-0.151
	c0.05-0.402,0-0.805-0.05-1.308c0,0-0.05-0.101-0.101-0.151c0-0.302,0.402-0.905-0.05-1.308c0.101-0.503,0.302-1.207,0.302-1.409
	c0-0.251-0.201-0.251-0.352-0.553c0-0.101,0.151-0.302,0.251-0.402c0-0.101-0.201-0.302-0.201-0.352c0,0,0.05-0.201,0.05-0.302
	l-0.101-0.101c0-0.302,0.352,0.201,0.05-1.107c0.151-0.151,0.151-0.755,0.101-0.906c0.05-0.101,0.151-0.302,0.151-0.503
	c0-0.302,0-0.755,0-1.308c0-0.151-0.05-0.352-0.251-0.453c0.453-0.302,0.101-1.157,0.251-1.61c0.352-0.956,0.302-1.962,0.352-2.767
	c0.151-0.101,0.101-0.302,0.151-0.402c-0.101-1.056,0.352-2.314,0.654-3.169c0-0.05-0.101-0.151-0.151-0.151
	c0.302-0.252,0.704-1.006,1.006-1.509c0.302-0.453,0.805-0.503,1.106-0.704c0.654-0.402,1.609-1.006,2.464-1.258
	c0.905-0.201,3.017-0.101,3.218-0.101c0.201,0,0.654,0.201,0.905,0.302c0.251,0.453,0.805,0.906,1.207,1.409
	c0.503,0.755,0.805,1.66,1.056,2.515c0.251,0.755,0.201,1.358,0.251,1.962C289.294,132.378,289.194,133.384,289.194,133.837z
	 M291.708,132.076c0-0.201-0.251-1.358-0.302-1.861c-0.05-0.101-0.251-0.151-0.352-0.251c0.101-0.101,0.201-0.201,0.201-0.302
	c-0.05-0.805-0.553-1.509-0.805-2.415c-0.05-0.352-0.453-0.553-0.553-0.755c-0.352-0.553-0.855-0.956-1.408-1.509
	c-0.402-0.352-0.805-0.855-1.056-1.006c-0.151-0.05-0.402,0-0.503-0.05c-0.201-0.151-0.302-0.403-0.352-0.403
	c-0.754-0.251-2.062-0.503-2.213-0.503c-0.251,0-1.358,0.05-2.012,0.101c-0.201,0.05-0.402,0.302-0.553,0.352
	c-0.553,0.101-1.106,0.302-1.559,0.403c-0.151,0.151-0.503,0.101-0.704,0.201c-0.704,0.402-1.408,0.905-2.062,1.358
	c-0.151,0.151-0.251,0.453-0.352,0.553c-0.201,0.151-0.704,0.402-0.855,0.704c-0.201,0.402-0.352,0.956-0.603,1.358
	c-0.101,0.201-0.352,0.302-0.402,0.402c-0.151,0.453-0.302,0.956-0.352,1.308c-0.101,0.704-0.251,1.358-0.302,1.962
	c-0.05,0.352-0.151,0.755-0.05,1.006c-0.05,0.101-0.151-0.05-0.151,0.201c0,0.05,0.251-0.05,0.151,0.654
	c0.05,0.101,0.05,0.302,0.151,0.402c0.101,0,0.151,0.05,0.151,0.05c-0.101,0.101-0.201,0.302-0.251,0.352
	c0,0.302-0.101,0.755-0.101,0.956c0,0.201,0.151,0.402,0.151,0.453c-0.05,0.201-0.05,0.402-0.101,0.553
	c-0.05,0.101-0.151,0.201-0.201,0.201c-0.05,1.308-0.251,3.673-0.251,3.874c0,0.252,0.101,1.509,0.302,2.214
	c0.101,0.252,0.352,0.252,0.352,0.453v0.101c-0.302,0.604,0,0.352,0,0.553c0,0.05-0.201,0.05,0,0.654
	c-0.151,0.251-0.352,0.755-0.352,0.956c0,0.252,0.101,0.654,0.101,0.906c0.201,0.101,0.251,0.201,0.251,0.402
	c0,0.252-0.101,0.453-0.151,0.604c0.151,0.151,0.151,0.201,0.352,0.302c-0.302,0.201-0.101,0.402-0.503,0.755
	c-0.05,0.402-0.251,1.207-0.251,1.409c0,0.251,0.101,1.358,0.201,2.012c0.05,0.251,0.402,0.755,0.402,0.956
	c0.05,0.151-0.101,0.453-0.201,0.553c0.05,0.151,0.302,0.453,0.302,0.654c0.05,0.453,0,1.006,0.05,1.409
	c0.201,0.604,0.453,1.308,0.603,1.761c0.101,0.503,0.252,1.258,0.453,1.66c0.251,0.604,1.006,1.358,1.308,1.861
	c0.453,0.201,1.056,0.654,1.458,0.855c0.553,0.252,1.207,0.101,1.71,0.252c0.503,0.151,1.408,0.604,1.609,0.604
	c0.201,0,1.307-0.101,1.861-0.302c0.201-0.05,0.402-0.352,0.453-0.402c0.754-0.252,1.76-0.654,2.263-0.906
	c0.402-0.151,0.654-0.604,0.855-0.855c0.05-0.05,0.151-0.05,0.201-0.05c1.006-1.107,1.458-1.861,1.66-2.767
	c-0.101,0-0.201-0.05-0.201-0.05c0.201-0.201,0.352-0.453,0.503-0.553c0.302-1.308,0.905-2.666,1.056-4.327
	c-0.05-0.101-0.151-0.251-0.151-0.302c0.503-0.453,0.251-1.308,0.251-1.811c0-0.352,0.201-0.755,0.252-1.006
	c0.101-0.654,0.05-1.308,0.101-1.962c0.05-1.61-0.05-3.27,0-4.93c0.05-0.755,0.503-2.616,0.503-2.817V132.076z"/>
<path fill="#FFFFFF" d="M317.256,133.988c0-0.201-0.453-3.27-0.553-4.98c0.1-4.075,0.1-4.176,0-4.276
	c0.352-0.604,0.251-1.811-0.503-2.415c-0.101-0.101-0.402-0.151-0.604-0.151c-0.251,0-0.754,0.101-1.006,0.252
	c-0.101,0.302-0.503,0.704-0.503,0.906c0,0.251,0.352,0.755,0.553,1.006c-0.402,0.201-0.654,1.157-0.754,1.308
	c-0.201,0.302-0.402,0.654-0.604,0.956c0,0.101,0.05,0.201,0.101,0.302c-0.201,0.654-0.654,1.258-0.855,1.761
	c-0.201,0.604-0.402,1.409-0.654,1.912c-0.151,0.402-0.402,0.855-0.553,1.258c-0.05,0.151,0,0.453-0.05,0.604
	c-0.05,0.101-0.151,0.201-0.201,0.252c-0.151,0.503-0.251,1.308-0.603,1.811c0.101,0.201,0.201,0.403,0.151,0.453
	c-0.201,0.704-0.704,1.71-0.855,2.515c-0.05,0.101-0.05,0.201-0.151,0.201c-0.402-0.553-0.654-1.509-0.754-2.012
	c-0.201-0.805-0.855-1.861-1.106-2.515c0-0.201,0.05-0.402-0.05-0.453c-0.553-1.409-0.855-2.163-1.408-3.27
	c0.201-0.553-0.352-1.308-0.503-1.61c-0.05-0.251-0.251-0.855-0.503-1.207c-0.302-0.755-0.503-1.66-0.805-2.314
	c-0.302-0.553-0.905-1.056-1.257-1.509c-0.201-0.251-0.805-0.956-1.257-0.956c-0.553,0-0.956,0.251-1.408,0.956
	c-0.151,0.151-0.05,0.503,0.05,0.654c0,0.101-0.201,0.151-0.201,0.403c0,0.05,0.1,0,0.151,0.553c0.05,0,0.201-0.05,0.201,0.151
	c0,0.252-0.201,0.352-0.251,0.553c-0.1,0.654-0.201,1.358-0.201,1.56c0,0.252,0.201,1.66,0.302,2.415
	c0.101,0.101,0.252,0.151,0.252,0.403c0,0.201-0.05,0.302-0.201,0.402c-0.151,0.805-0.201,1.559-0.302,2.214
	c-0.05,0.755-0.05,1.761-0.151,2.364c0.251,0.805-0.151,1.057-0.151,1.107c0,0.252,0.101,0.101,0.101,0.101c0,0.453,0,1.057,0,1.509
	c0.101,0,0.151,0.05,0.151,0.05c-0.352,0.453-0.151,1.107-0.201,1.509c-0.05,0.453-0.151,1.006-0.151,1.308
	c0,0.654,0.1,1.358,0,1.861c0.1,0,0.201,0.05,0.151,0.151c-0.05,0.101-0.151,0.151-0.151,0.201c0.1,0.201,0.201,0.352,0.151,0.453
	c-0.151,0.553-0.251,1.207-0.251,1.71c0,0.201,0,3.371,0.05,3.471s0.151,0.252,0.151,0.352s0,0.151,0,0.151
	c-0.553,1.207-0.251,2.515-0.352,3.572c0.05,0.101,0.101,0.201,0.101,0.201c-0.05,1.409-0.302,4.125-0.302,4.326
	s0.352,1.107,0.352,1.308c0,0.251-0.252,0.704-0.352,0.956c0.1,0,0.251,0.201,0.302,0.302c0.05,0.453-0.05,0.906,0,1.308
	c0.05,0.101,0.05,0.251,0.101,0.352c-0.05,0.252-0.05,0.704-0.05,0.956c0.151,0.553,1.056,0.755,1.358,0.704
	c0.05,0.05,0.151,0.151,0.402,0.151c0.251,0,0.603-0.252,0.704-0.402c0.05-0.302,0.05-0.553,0.05-0.755
	c0-0.252-0.302-1.308-0.201-1.811c-0.101-0.05-0.151-0.05-0.251-0.151c0.654-0.402,0.251-0.855,0.251-1.107
	c-0.101-0.906,0.05-2.063,0.151-2.918c0.05-0.151,0.151-0.352,0.151-0.553c0-0.201-0.251-1.459-0.251-2.214
	c0-0.503,0.352-1.308-0.151-1.509c0.503-0.855,0.352-1.861,0.402-2.767c0.05-0.704,0.05-1.459,0.101-1.962
	c0.101-0.805,0.151-1.358,0.201-2.163c0-0.201-0.151-0.403-0.151-0.553c0-0.251,0.251-0.453,0.251-0.654
	c0.101-0.755-0.302-2.063,0.151-3.069c-0.101-0.654-0.101-1.157-0.151-1.962c0.252-0.553-0.05-1.409,0-1.962
	c0.05-0.553,0.151-1.157,0.151-1.56c0-0.201-0.101-0.402-0.101-0.453c0.101-0.252,0.201-0.604,0.251-0.855
	c0.05-0.201,0.05-2.163,0.05-2.264c0-0.352-0.201-0.704-0.251-1.107c-0.05-0.453,0-1.107,0-1.509c0-0.251-0.151-0.855-0.151-1.056
	c0-0.201,0.05-0.654,0.151-1.006c0.402,0.302,0.704,0.604,1.056,0.905c0,0.352,0.302,0.654,0.302,0.906
	c-0.553,0.906,0.453,1.66,0.754,2.868c0,0.201-0.05,0.453,0,0.604c0.453,1.107,0.503,2.817,1.71,3.622
	c0.151,0.503,0.352,0.855,0.352,1.207c-0.201,0.503,0.302,1.207,0.553,1.559c-0.05,0.453,1.307,3.32,2.565,3.32
	c0.251,0,0.302-0.101,0.402-0.101c-0.503-0.704,0.1-0.251,0.1-0.905c0-0.201-0.201-0.352-0.201-0.503
	c-0.201-0.151-0.302-0.302-0.302-0.402c0.553-0.553,0.805-1.66,0.905-2.314c0.151-0.151,0.352-0.251,0.402-0.402
	c-0.101,0-0.151-0.101-0.251-0.151c0.251-0.302,0.352-0.503,0.402-0.704c0.151-0.302,0.05-0.704,0.151-1.056
	c0.101-0.252,0.453-0.604,0.503-0.855c0.201-0.654,0.352-1.559,0.604-2.063c0.151-0.201,0.453-0.402,0.453-0.553
	c0-0.201-0.05-0.402,0.05-0.553c0.1-0.302,0.251-0.553,0.352-0.755c0-0.101,0-0.151,0-0.252c0.151-0.151,0.302-0.352,0.503-0.453
	l0.151,0.151c-0.05,1.006,0,2.063,0.101,2.968c0,0.201,0.251,0.402,0.453,0.553c-0.101,0.101-0.201,0.201-0.251,0.201
	c0.05,0.956-0.151,1.811,0,2.968c0.1,0.352-0.302,1.056-0.302,1.258c0,0.251,0.251,0.553,0.302,0.805c0,0.201,0.05,0.402,0.05,0.604
	l-0.101,0.05c0,0.151,0.101,0.352,0.05,0.553c-0.05,0.05-0.151,0.151-0.201,0.201c0,0.905-0.201,2.063-0.402,2.867
	c0,0.101,0.101,0.201,0,4.226c0.201,0.151,0.402,0.302,0.402,0.402c-0.101,0.101-0.201,0.101-0.302,0.201c0,1.207,0,2.415,0,3.572
	c-0.101,0.352-0.101,0.906,0,1.308c0,0.151-0.151,0.453-0.151,0.654c-0.101,0.704-0.05,1.61-0.05,2.314
	c-0.05,0.956-0.151,2.566-0.151,2.717c0,0.251,0.151,0.251,0.201,0.352c-0.05,0.201-0.101,0.402-0.05,0.453
	c0,1.006-0.302,1.811,0.151,3.169c0.101,0.252,1.056,0.604,1.408,0.604c0.251,0,0.402-0.101,0.553-0.201
	c0.05-0.604,0.251-1.61,0.251-1.861c0-0.151-0.503-2.214-0.302-2.717c-0.201-0.352-0.302-0.906-0.302-1.107
	c0-0.101,0.553-1.107,0.151-1.509c0.151-0.503,0.453-1.459,0.503-1.761c0.101-1.107,0-2.264,0.05-3.27
	c0-0.251,0.05-0.553,0.201-0.654c0.05-0.05,0-0.704,0-0.704l-0.05-1.157c0-0.906,0.1-1.006,0.1-1.006
	c-0.1-0.352-0.1-0.755-0.151-1.057c-0.05-0.101-0.252-0.251-0.252-0.352c0.101-0.101,0.201-0.151,0.252-0.201
	c0.05-1.358,0.151-2.868,0.201-4.276c0.05-0.755-0.05-1.509-0.151-2.113c0.553-0.352,0.302-1.559,0.352-2.264
	C317.055,135.397,317.256,134.24,317.256,133.988z"/>
<path fill="#FFFFFF" d="M334.405,142.188c0,0-0.101,0.151-0.101,0.251h-0.503c-0.251,0-0.05-0.201-0.302-0.201
	c-0.201,0-1.207,0.352-1.408,0.352c-0.251,0-1.106-0.05-1.559,0c-0.151-0.101-0.302-0.503-0.302-0.755
	c0.05-1.006-0.101-0.755-0.101-0.906c0-0.201,0.352-0.704,0.402-1.057c0.05-0.654-0.05-1.409,0-2.063
	c0.05-0.101,0.05-0.201,0.101-0.302c0.101-0.553-0.05-1.258-0.05-1.761c0.05-0.402,0.201-1.308,0.201-1.962
	c0-0.151-0.05-0.402-0.101-0.604c-0.05-0.05,0.151-0.302,0.201-0.503c0-0.101,0.05-0.302,0-0.453
	c0.352-0.151,0.101-0.805,0.101-1.107c0-0.201,0.201-0.906,0.251-1.207c0.101-0.553,0.201-1.258,0.201-1.811
	c0.251,0.251,0.654,0.704,0.855,1.107c0.201,0.402-0.05,0.906,0,1.409c0.201,1.358,0.603,3.421,0.754,4.88
	c0,0.201,0.352,1.207,0.503,1.61c0.101,0.402,0.201,1.157,0.201,1.71c0.05,0.654,0.252,1.409,0.302,2.063c0,0.251,0,0.553,0,0.855
	C334.053,141.886,334.204,142.088,334.405,142.188z M339.685,162.11c-0.302-1.107-0.603-2.264-0.855-3.069
	c-0.453-1.358-1.006-3.22-1.358-4.578c-0.251-1.258-0.503-2.817-0.603-3.974c0.05-0.101,0.05-0.101,0.05-0.101
	c-0.201-0.956-0.05-1.459-0.503-2.163c0.05-0.352,0-1.006-0.151-1.258c0.1-0.101,0.1-0.151,0.1-0.151
	c-0.201-1.308-0.704-2.666-0.553-3.874c-0.201-0.453-0.101-1.006-0.251-1.509c0.201-0.201-0.101-0.855-0.101-1.207
	c0-0.252-0.05-0.604-0.1-0.855c-0.101-0.252-0.302-0.553-0.302-0.704c0-0.201,0.201-0.403,0.151-0.604
	c-0.05-0.151-0.201-0.352-0.201-0.503c0.05-0.101,0.151-0.201,0.151-0.302c-0.201-0.805-0.101-1.409-0.201-1.861
	c-0.151-1.509-0.201-2.868-0.654-4.075c0.302-0.402-0.05-1.509-0.151-2.012c-0.05-0.101-0.151-0.101-0.201-0.151
	c0-0.402,0-0.855-0.05-1.207c-0.05-0.101-0.151-0.201-0.201-0.302c-0.151-1.006-0.201-2.063-0.453-3.069
	c-0.251-0.906-0.704-1.861-1.207-2.717c-0.151-0.201-0.453-0.604-0.654-0.604c-0.251,0-0.402,0.151-0.603,0.252
	c-0.453,0.503-0.956,1.761-0.704,2.063c-0.05,0.101-0.151,0.05-0.201,0.151c-0.1,1.057,0.101,2.264-0.603,3.371l0.201,0.201
	c-0.251,0.101-0.302,0.101-0.302,0.352c0.201,1.157-0.101,0.553-0.101,0.704c0,0.101,0.101,0.704,0.201,0.906
	c-0.101,0.101-0.151,0.05-0.251,0.101c-0.101,0.604-0.201,1.509-0.201,2.012c0,1.459-0.604,2.717-0.251,4.125
	c-0.201,0.906-0.251,1.861-0.302,2.666c0,0.101-0.101,0.101-0.151,0.101c-0.05,0.101,0.05,0.201,0.05,0.302
	c0,0.101-0.101,0.101-0.101,0.302c0,0.252,0,0.704,0.151,0.906c0.05,0.05,0.201,0.151,0.201,0.252
	c-0.05,0.101-0.251,0.302-0.302,0.302c-0.402,2.515-0.704,5.484-1.056,7.546c-0.05,0.201-0.251,0.453-0.251,0.654
	c-0.151,0.805-0.352,2.365-0.402,2.616c-0.05,0.453,0,0.956-0.05,1.308c-0.05,0.503-0.302,1.006-0.352,1.308
	c-0.201,1.71-0.302,3.471-0.654,5.383c-0.101,0.101-0.151,0.101-0.151,0.101c0,0.352-0.1,0.755-0.1,1.107
	c0.05,1.006-0.754,0.704-0.754,1.459c0,0.352,0.905,0.906,1.307,0.906c0.201,0,0.503,0,0.754,0c0.352,0,1.257-0.805,1.358-1.056
	c0.151-0.402,0-1.057,0.05-1.459c0.05-0.302,0.251-0.503,0.201-0.704c-0.05-0.302-0.1-0.503-0.1-0.704
	c0.1-1.258,0.603-2.264,0.855-3.169c0.101-0.403,0.101-0.956,0.151-1.308c0.05-0.201-0.151-0.352-0.1-0.553
	c0.553-0.956,0.402-3.169,0.503-3.723c0.05-0.604,0.201-0.805,0.201-1.409c0-0.503,0.05-1.006,0.151-1.308
	c0.101-0.352,0.302-0.905,0.302-1.308c0-0.553-0.151-1.107-0.151-1.559c0.654-0.251,2.866-0.604,3.068-0.604
	c0.352,0,1.257-0.101,1.71,0.201c-0.251,0.654,0.151,1.459,0.201,1.861c0,0.352,0.201,0.906,0.201,1.107
	c0,0.855,0,1.559,0.553,2.566c-0.201,0.503-0.201,1.459,0.201,1.56c0.05,0.654,0.151,1.358,0.201,1.962
	c0.302,0.151,0,0.755,0.151,1.207c0.05,0.201,0.302,0.402,0.302,0.453c0.05,0.302-0.1,0.604-0.05,0.755
	c0.201,0.654,0.302,1.761,0.905,2.264c-0.402,0.956,0.654,1.66,0.604,2.767c0.05,0.101,0.251,0.201,0.251,0.302
	c0.1,0.151,0.201,0.453,0.201,0.654c0,0.252-0.101,0.252-0.101,0.352c0.352,0.201,0.805,0.704,1.006,0.704
	c0.201,0,0.352-0.101,0.453-0.101V162.11z"/>
<path fill="#FFFFFF" d="M358.594,133.082c0,0.201-0.251,0.855-0.251,1.207c0,0.755,0.201,1.509,0.151,2.264
	c0,0.201-0.201,0.654-0.251,1.006c0,0.252,0.101,0.503,0.151,0.805c0.05,0.201-0.101,0.503-0.101,0.704
	c0,0.553,0.201,1.207,0.101,1.761c-0.101,0.553-0.251,1.358-0.251,1.61c0,0.201,0.101,0.503,0.05,0.805
	c0.05,0.151,0.252,0.302,0.402,0.453c-0.151,0.05-0.251,0.251-0.302,0.453c0.402,0.604,0,1.459,0.201,2.264
	c-0.251,0.553-0.704,1.258-0.251,1.861c0,0-0.201,0.151-0.251,0.352c-0.05,0.201,0.1,0.352,0.1,0.553
	c0.201,4.628-0.251,3.069-0.453,4.578c0.251,0.302,0.302,1.207,0.101,1.509c-0.503,0.805-0.704,1.61-0.855,2.515
	c-0.302,0.201-0.704,0.654-1.157,0.956c0,0.101-0.1,0.252-0.151,0.352c-0.151,0.101-0.352,0.352-0.503,0.453
	c-0.151,0.101-0.503,0.151-0.855,0.151c-0.654,0.05-1.408,0.553-1.66,0.553c-0.251,0-2.112,0.151-2.313,0.151
	c-0.201,0-0.503,0.201-0.704,0.201c-0.101,0.101,0.05,0.252,0.05,0.553c-0.101,0-0.251,0.101-0.553,0.101
	c0-0.101-0.101-0.302-0.201-0.402c0.101-4.477,0.503-3.371,0.151-4.679c0.05-0.503,0.302-1.258,0.302-1.761
	c0-1.006-0.201-2.616-0.151-3.723c0-0.302,0.251-0.956,0.302-1.409c0-0.503,0.101-1.107,0-1.66c0-0.101-0.151-0.252-0.151-0.453
	c0-1.811,0.201-3.572,0.151-5.333c0.553-0.654,0.05-1.157,0.352-1.962c-0.101-0.503,0-1.006-0.101-1.811c0,0,0.101-0.05,0.151-0.151
	c0-0.503,0.101-1.107,0.151-1.66c-0.05-0.101-0.101-0.201-0.101-0.251c0.05-0.05,0.151-0.252,0.201-0.302
	c0.1-0.453-0.101-1.056,0-1.61c0-0.302,0.302-1.207,0-1.509c0.251-0.453,0.05-0.805,0-1.358c0,0,0.05-0.101,0.05-0.201
	c0-0.755,0-1.559,0-2.415c0-0.05,0-0.252-0.151-0.453c0.151-0.402,0.151-1.056,0.151-1.509c0.05-0.654-0.05-1.761-0.05-2.616
	c0-0.101,0.05-0.352,0.251-0.453c0.402-0.151,0.956-0.201,1.408-0.201c0.603,0,1.81,0,2.012,0c0.201,0,1.207,0.553,1.71,0.654
	c0.101,0.251,0.453,0.553,0.654,0.755c0.05,0.101,0.05,0.151,0.1,0.251c0.252,0.201,0.604,0.352,0.754,0.654
	c0.352,0.805,0.503,1.358,0.654,2.063c0.101,0.503,0.302,1.057,0.604,1.509c0,0.201,0,0.503-0.05,0.755
	c0.05,0.101,0.201,0.201,0.201,0.352c0,0.453-0.05,1.006,0.101,1.61c0.05,0.151-0.05,0.453-0.05,0.704
	C358.544,132.781,358.594,132.831,358.594,133.082z M360.757,132.881c0-0.201-0.05-1.207-0.151-1.761
	c0-0.302-0.251-0.654-0.302-0.906c-0.05-0.604-0.05-1.308-0.151-1.811c-0.05-0.201-0.302-0.352-0.302-0.553
	c0-0.201,0-0.352-0.05-0.553c-0.05-0.101-0.251-0.201-0.302-0.302c-0.302-0.956-0.855-2.616-1.961-3.521
	c-0.251-0.201-0.654-0.402-0.905-0.654c-0.101,0-0.251,0-0.352-0.05c-0.503-0.402-1.106-0.654-1.71-0.855
	c-0.101-0.05-0.101-0.252-0.352-0.252c-0.201,0-0.453,0.101-0.654,0.101c-0.201,0-0.302-0.302-0.503-0.302
	c-0.151,0-0.553-0.05-0.704-0.151l-0.251,0.201c-0.05,0-0.101-0.201-0.352-0.201c-0.201,0,0.05,0.201-0.151,0.201
	c-0.251,0-0.05-0.101-0.302-0.101s-1.307,0.352-1.509,0.352c-0.302,0-0.352-0.201-0.553-0.201c-0.201,0-0.956,0.302-1.207,0.302
	c-0.201,0,0-0.201-0.201-0.201c-0.201,0-0.503,0.201-0.654,0.402c-0.151,0.654,0.201,1.459,0.302,2.012
	c0.101,0.352-0.05,0.805,0,1.107c0,0.201,0.352,0.352,0.453,0.553c-0.553,0.654-0.151,1.56-0.302,2.415
	c0.101,0.101,0.101,0.302,0.151,0.403c0.05,0.101-0.05,0.251-0.101,0.352c0.151,0.553,0.201,1.207,0.251,1.761
	c0,0.201-0.05,0.402-0.05,0.453c0,0.201,0.101,0.252,0.101,0.453c0,0.251-0.101,3.169-0.352,4.779c0,0.251-0.101,0.755-0.05,0.956
	c0,0.251,0.302,0.654,0.201,0.906c-0.251,0.654-0.101,0.906-0.201,1.66c-0.201,1.66-0.251,3.371-0.302,4.93
	c0,0.101,0.05,0.302,0.1,0.402c-0.1,0.352-0.201,0.855-0.201,1.006c0,0.251,0.352,1.157,0.352,1.358
	c0,0.201-0.453,1.962-0.453,2.163c0,0.251,0.201,0.201,0.251,0.302c-0.151,0.755,0,1.509-0.101,2.214
	c-0.101,0.956-0.151,2.063-0.151,2.817c0,0.402-0.151,0.755-0.151,1.006c0,0.855,0.05,1.509,0.101,2.214l-0.151,0.151
	c0,0.201,0.101,0.151,0.101,0.251c-0.101,0.402-0.101,0.855,0,1.107c-0.101,0.402,0,0.755-0.05,1.056
	c0,0.302,0.402,0.906,0.654,0.956c0.905,0.201,2.967,0.402,3.168,0.402c0.251,0,2.364-0.654,2.615-0.654
	c0.201,0,0.352,0.101,0.553,0.101c0.251,0,1.257-0.755,1.509-0.755c0.201,0,0,0.151,0.252,0.151c0.251,0,1.056-0.755,1.408-0.956
	c0.05-0.05,0.05-0.251,0.05-0.352c0.453-0.201,0.754-0.453,1.106-0.654c0.352-0.252,0.553-0.704,0.603-0.956
	c0.352-1.006,0.553-2.214,0.805-3.169v-0.755c-0.101-0.101-0.302-0.151-0.402-0.252c0.101-0.101,0.302-0.201,0.352-0.251
	c0.05-0.302,0.05-0.604,0-0.805c0.352-0.604,0.352-1.459,0.101-1.861c0.05-0.352,0-0.704,0.101-1.006
	c0.453-0.503,0.251-1.861,0.251-2.616c0-0.654,0.05-1.409,0.101-1.861c-0.05-0.101-0.101-0.151-0.101-0.151
	c0.402-0.453,0.05-1.157,0.101-1.509c0-0.402,0.201-1.157,0.201-1.509c0-0.553-0.251-1.308-0.201-1.761
	c0.201-1.107,0.402-2.817,0.302-4.377c-0.05-0.553,0.101-0.956,0.101-1.308c0-0.654,0-1.409,0.05-1.861
	C360.656,133.032,360.757,133.133,360.757,132.881z"/>
<path fill="#FFFFFF" d="M69.052,25.3c-4.093,0.033-9.724,1-16.895,2.899c-0.786-0.688-1.179-1.081-1.179-1.179
	c-0.229,0-0.361,0.131-0.393,0.393c-1.67,0-2.767,1.114-3.291,3.341c-0.491,0.361-2.374,1.261-5.648,2.702
	c-0.164,0-1.08,0.786-2.75,2.358l0.197,0.344c0.13,0,0.327-0.049,0.589-0.147l0.982,0.344c0.556,1.049,1.014,1.572,1.375,1.572
	c0,0.131-0.066,0.328-0.196,0.59c0.622,0.786,0.933,1.245,0.933,1.376c0,1.179-4.797,11.3-14.39,30.362
	c-2.849,5.929-4.601,9.303-5.255,10.121l-5.795,10.514c-0.229,0.361-1.08,1.458-2.554,3.292h-0.196l0.196-0.393v-0.197H14.39
	c-0.491,1.179-0.884,1.965-1.179,2.358v0.147h0.393v0.393c-1.147,0.754-2.047,1.933-2.701,3.537c0,0.263,0.13,0.393,0.393,0.393
	l-0.197,0.393c-0.786,0.164-1.179,0.606-1.179,1.326l0.196,0.393c-0.556,1.016-1.014,1.736-1.375,2.162l0.197,0.393
	c-0.098,0-0.36,0.328-0.786,0.983l-0.393-0.197c-0.523,0.197-1.424,1.687-2.701,4.471c-1.8,1.539-2.701,3.292-2.701,5.257
	c0,0.36,0.115,0.54,0.344,0.54c0,0.229-0.114,0.753-0.344,1.572v0.197c0.426,0,0.868-0.197,1.326-0.59
	c1.179,0.851,1.768,1.376,1.768,1.572c-1.309,0.491-1.964,0.884-1.964,1.179c-1.342,0.557-2.505,1.457-3.487,2.702v0.393h0.196v0.59
	c0,0.262,0.328,0.393,0.982,0.393c0.721,1.31,1.294,1.965,1.719,1.965c0.229,0.753,0.426,1.13,0.589,1.13
	c1.081,0.917,1.932,1.376,2.554,1.376c4.78-1.67,17.746-9.843,38.897-24.516c12.573-8.843,23.59-17.277,33.053-25.302
	c3.307-3.046,6.499-5.83,9.577-8.352c7.923-8.352,12.131-13.347,12.622-14.985c3.241-4.52,4.862-8.679,4.862-12.479
	c0-0.95-0.262-2.243-0.786-3.881c-2.063-4.324-5.042-8.024-8.938-11.104c-2.62-1.769-6.712-3.062-12.278-3.881
	c0,0.131-0.066,0.197-0.196,0.197l-2.505-0.393C76.451,24.187,72.687,24.646,69.052,25.3L69.052,25.3z M83.049,32.277
	c0,0.131,0.131,0.197,0.393,0.197c0.295,0,0.556-0.065,0.786-0.197c0.295,0.098,1.146,0.229,2.554,0.393
	c0-0.131,0.065-0.196,0.196-0.196c3.798,0.688,5.86,1.147,6.188,1.376c2.095,0.393,3.143,1.049,3.143,1.965v0.54
	c0,2.26-0.721,4.667-2.161,7.222c-0.852,2.588-3.111,5.962-6.778,10.121c-2.357,2.457-3.536,3.881-3.536,4.274
	c-1.146,0.754-2.112,1.54-2.898,2.358c-0.95,1.409-1.539,2.113-1.768,2.113v-0.196c-1.572,1.409-2.603,2.391-3.094,2.948
	c-0.393,1.016-0.721,1.523-0.982,1.523c0-0.131-0.066-0.197-0.197-0.197H74.7l-1.768,2.162c0,0.262,0.131,0.393,0.393,0.393
	c0,0.524-0.508,0.786-1.522,0.786c-1.212,0.884-1.866,1.326-1.965,1.326l0.197,0.393c-0.754,0-1.408,0.459-1.965,1.376v0.196
	c0.163,0,0.36-0.065,0.589-0.196h0.196c0,0.196-0.262,0.393-0.786,0.59l-0.393-0.197c-0.229,0-0.606,0.262-1.13,0.786l0.197,0.393
	l0.589-0.393v0.197c0,0.131-0.524,0.656-1.572,1.572l-0.982-0.197c0,0.098-0.393,0.41-1.179,0.934
	c-1.277,0.557-2.964,1.867-5.059,3.93v0.197h0.589v0.197h-0.196l-0.786-0.197l-1.13,0.933v0.197l0.393,0.59l-0.982-0.196
	c-0.393,0.196-0.589,0.393-0.589,0.589v0.197h0.196l0.786-0.59v0.393c-1.572,1.114-2.357,1.9-2.357,2.358
	c-1.146,0.459-1.736,0.901-1.768,1.326l-0.344-0.197l-2.947,2.358c0,0.557-0.966,1.212-2.898,1.965L46.313,90.3l-0.982,0.393
	c0,0.131,0.065,0.312,0.196,0.54v0.197h-0.196c-0.229,0-0.361-0.114-0.393-0.344c-0.786,0.59-1.179,0.966-1.179,1.13h0.393
	l0.589-0.393h0.196c0,0.131-0.524,0.524-1.572,1.179v-0.197l0.196-0.393H43.17c-0.72,0.426-1.228,0.884-1.522,1.376h0.196
	l0.737-0.59v0.196c-0.229,0.524-0.606,0.917-1.13,1.179h-0.393l0.393-0.59h-0.589c-3.732,2.523-6.074,4.274-7.023,5.257h0.196
	c0.916-0.36,1.375-0.688,1.375-0.983h0.393l-0.196,0.393c-1.834,1.147-3.192,2.113-4.076,2.899
	c-0.917,0.361-1.375,0.754-1.375,1.179c-1.408,0.917-2.129,1.507-2.161,1.769l-0.933-0.196c-0.229,0-0.361,0.131-0.393,0.393v0.197
	c0.13,0,0.327-0.065,0.589-0.197h0.196v0.197c-0.229,0-0.753,0.263-1.572,0.786l-0.393-0.196v0.393
	c-0.917,0.59-1.375,0.966-1.375,1.13h-0.786c0,0.361-0.312,0.754-0.933,1.179c-1.08,0-2.129,0.655-3.143,1.965l-0.393-0.197
	c-0.361,0-0.557,0.327-0.589,0.983c-2.292,1.048-3.651,2.08-4.076,3.095h-0.393c0.262-0.95,0.786-1.737,1.572-2.358v-0.59
	c0.949-1.31,6.401-10.972,16.354-28.987c10.019-19.783,16.96-34.309,20.824-43.579c0.098-0.458,1.588-1.179,4.469-2.162
	c5.042-1.146,7.563-1.85,7.563-2.113c0.131,0,0.327,0.066,0.589,0.196c0.393-0.262,4.666-0.917,12.818-1.965v0.196l1.179-0.196
	c0.295,0,0.556,0.066,0.786,0.196L83.049,32.277z M95.131,43.773v0.59h-0.393v-0.197C94.738,43.938,94.869,43.806,95.131,43.773
	L95.131,43.773z M93.559,46.672c-0.491,1.147-1.196,2.326-2.112,3.537h-0.197v-0.197c0.393-0.425,0.589-0.753,0.589-0.983
	c0.884-1.146,1.326-1.932,1.326-2.358H93.559z M91.251,50.406v0.196c-0.622,0.884-1.015,1.326-1.179,1.326v-0.196
	C90.563,50.848,90.956,50.406,91.251,50.406L91.251,50.406z M89.679,52.322h0.197c-0.197,0.393-0.393,0.59-0.589,0.59v-0.196
	C89.287,52.486,89.417,52.355,89.679,52.322L89.679,52.322z M29.959,70.451v0.196c0,0.263-0.131,0.393-0.393,0.393v-0.197
	C29.566,70.615,29.696,70.484,29.959,70.451L29.959,70.451z M71.017,71.041v0.147l-0.196,0.393h-0.393v-0.197
	c0.262,0,0.393-0.114,0.393-0.344H71.017z M70.231,71.974c0,0.263-0.131,0.393-0.393,0.393h-0.196v-0.393H70.231z M26.668,77.035
	v0.197c-0.491,0.655-0.819,0.983-0.982,0.983v-0.197C26.144,77.362,26.472,77.035,26.668,77.035L26.668,77.035z M63.797,77.035
	h0.196v0.393h-0.589C63.404,77.231,63.535,77.101,63.797,77.035L63.797,77.035z M60.114,80.179v0.196
	c-0.131,0-0.328,0.066-0.589,0.197v-0.393H60.114z M14.586,94.574c0.262,0,0.393,0.131,0.393,0.393c-0.589,0-0.917,0.377-0.982,1.13
	h-0.196v-0.344C14.127,94.967,14.39,94.574,14.586,94.574L14.586,94.574z M55.448,95.36v0.197c-0.524,0.066-0.786,0.246-0.786,0.54
	h-0.393V95.95c0.393,0,0.589-0.197,0.589-0.59H55.448z M38.897,95.95h0.197v0.147c-0.197,0-0.459,0.131-0.786,0.393h-0.196
	C38.111,96.294,38.373,96.114,38.897,95.95L38.897,95.95z M44.545,96.097v0.197c0,0.263-0.131,0.393-0.393,0.393h-0.196v-0.393
	C44.086,96.294,44.283,96.229,44.545,96.097L44.545,96.097z M37.178,97.08h0.196c-0.196,0.524-0.393,0.786-0.589,0.786h-0.393
	C36.687,97.342,36.949,97.08,37.178,97.08L37.178,97.08z M30.941,101.158v0.197c1.047-0.655,1.572-1.032,1.572-1.13
	C31.792,100.224,31.268,100.536,30.941,101.158L30.941,101.158z M18.859,108.969l0.197,0.393c0.622-0.164,0.949-0.426,0.982-0.786
	v-0.197L18.859,108.969z"/>
<path fill="#FFFFFF" d="M148.615,41.022c-16.142,6.485-27.847,10.973-35.115,13.462h-0.147c-1.572-0.917-2.603-1.376-3.094-1.376
	c-0.131,0-0.344,0.246-0.639,0.737c-0.098,0-0.147-0.049-0.147-0.147c-0.164,0-0.263,0.115-0.295,0.344l0.295,0.442v0.639
	l-0.786,1.081c-5.141,1.67-7.711,2.702-7.711,3.095v0.147c0.523,0.721,1.866,1.491,4.027,2.309h0.442
	c0.327,0,0.737-0.147,1.228-0.442c-0.655,2.784-1.113,4.176-1.375,4.176l0.147,0.295l-0.295,0.147
	c-0.196,0.95-0.655,2.13-1.375,3.537c-1.736,5.077-2.816,7.615-3.241,7.615c-6.909,2.031-11.099,3.619-12.573,4.766l0.196,0.786
	c0,0.524,0.769,1.605,2.308,3.243c1.113,1.409,2.242,2.293,3.389,2.653c0.327-0.196,0.688-0.36,1.08-0.491
	c-0.524,2.228-1.752,4.553-3.684,6.976l0.147,0.295h-0.147c-0.721,0.852-1.196,1.687-1.424,2.506
	c-2.619,1.016-4.059,1.736-4.322,2.162v0.295c0.295,0.884,0.704,1.507,1.228,1.867l-0.147,0.295l0.147,0.344
	c0.819,0.131,1.228,0.377,1.228,0.737c-0.164,0.656-0.523,1.442-1.081,2.358v0.295h0.147l1.13-0.639
	c0.295,0,0.442,0.263,0.442,0.786c0.523,0.263,0.786,0.475,0.786,0.639c1.014,0.557,1.522,1.016,1.522,1.376h0.344
	c0.197,0,0.295-0.098,0.295-0.295l0.786,0.147c0.458-0.098,1.015-0.818,1.67-2.162c0-0.458,1.702-1.343,5.108-2.653
	c2.586-0.72,3.88-1.392,3.88-2.014h0.147l0.442,0.344v-0.196l-0.147-0.295c0.327,0,0.688-0.049,1.08-0.147
	c0,0.098,0.065,0.147,0.196,0.147c0-0.295,0.295-0.557,0.884-0.786v-0.295h-0.147c-0.295,0.197-0.655,0.361-1.08,0.491v-0.197
	c1.768-0.917,2.652-1.474,2.652-1.67c3.863-1.572,6.237-2.358,7.121-2.358l6.483-3.095l8.496-4.176l-0.147-0.295
	c-0.164,0-1.555,0.524-4.174,1.572c-0.295,0-0.442-0.114-0.442-0.344c3.765-1.572,5.926-2.538,6.483-2.899l-0.147-0.344
	c0.916-0.131,1.375-0.327,1.375-0.59l-0.295-0.491h-0.344l-4.764,1.867h-0.147c0-0.295,1.44-0.917,4.322-1.867
	c1.44-0.884,2.783-1.604,4.027-2.162l-0.344-0.639c0.425-0.131,0.638-0.327,0.638-0.59c0.197,0,0.295,0.098,0.295,0.295h-0.295
	l0.147,0.295c0.196,0,0.36-0.295,0.491-0.884c-0.459,0-0.884,0.098-1.277,0.295l-0.442-0.295l-0.491,0.295h-0.295
	c0-0.163,0.213-0.327,0.639-0.491l-0.147-0.295c-0.95,0.524-2.096,0.983-3.438,1.376l-0.295-0.147
	c-0.196,0.098-0.344,0.147-0.442,0.147c-0.229,0-0.442-0.049-0.639-0.147c-1.441,0.328-4.125,1.36-8.054,3.095
	c-2.456,0.819-3.684,1.393-3.684,1.72c-0.131,0-0.196-0.049-0.196-0.147l-16.846,6.485h-0.147c0-0.197,1.391-3.128,4.174-8.794
	c0-0.36,2.014-1.293,6.041-2.8c2.815-0.753,4.469-1.474,4.96-2.162c0.098,0,0.147,0.049,0.147,0.147
	c5.566-2.063,8.349-3.357,8.349-3.881c1.637-0.655,2.456-1.064,2.456-1.228v-0.147c-0.557,0.295-0.966,0.442-1.228,0.442h-0.147
	v-0.295c3.994-1.769,7.039-2.948,9.135-3.537h0.295v0.147c-1.277,0.491-1.948,0.737-2.014,0.737v0.344h0.491v-0.344h0.295
	l0.442,0.344V72.76l-0.147-0.344c0.262,0,0.523-0.098,0.786-0.295l0.442,0.295v-0.147l-0.147-0.295c0.556,0,1.13-0.262,1.719-0.786
	l-0.786,0.147h-0.147v-0.147c1.735-1.015,2.766-1.523,3.094-1.523c2.259-1.244,3.503-1.867,3.733-1.867v-0.147l-0.196-0.344
	c0.13,0,0.196-0.049,0.196-0.147c0.098,0,0.147,0.049,0.147,0.147l1.522-0.442v-0.147l-0.147-0.344
	c-0.982,0.426-1.801,0.688-2.456,0.786l-0.638-0.147c-0.197,0.098-0.344,0.147-0.442,0.147h-0.344v-0.147
	c0.523-0.065,1.915-0.573,4.174-1.523c2.291-1.146,3.536-1.72,3.733-1.72c-0.328-0.262-0.491-0.474-0.491-0.639h-0.147
	c-0.196,0-0.295,0.164-0.295,0.491l-0.638-0.344c-0.295,0.164-0.442,0.328-0.442,0.491l-0.295-0.147
	c-0.295,0.197-1.179,0.508-2.652,0.933h-0.442v-0.147c3.601-1.113,5.402-1.899,5.402-2.358l-0.147-0.295
	c0.327-0.295,0.589-0.442,0.786-0.442v-0.344h-0.786l-0.491,0.344h-0.147v-0.639h-0.147c-0.229,0.164-0.638,0.312-1.228,0.442
	l-0.147-0.295c-0.721,0-1.555,0.213-2.505,0.639h-0.589v-0.147c0.491,0,0.802-0.163,0.933-0.491c-0.459,0-1.294,0.312-2.505,0.933
	l0.147,0.295l-1.08-0.147h-0.147c-1.245,0-3.143,0.623-5.697,1.867c-4.126,1.376-6.188,2.195-6.188,2.457
	c-0.098,0-0.147-0.049-0.147-0.147c-4.257,1.67-7.563,3.177-9.921,4.52c-1.866,0.459-4.453,1.376-7.76,2.751h-0.147
	c2.291-6.124,3.945-11.07,4.96-14.837l7.269-2.653c3.11-1.343,4.911-2.014,5.402-2.014v-0.147l-0.147-0.295h0.344l0.295,0.147
	c0.098-0.196,0.147-0.344,0.147-0.442l0.295,0.147h0.147c0.523,0,0.835-0.163,0.933-0.491v-0.295l-0.147-0.295
	c3.961-1.572,7.367-3.013,10.215-4.323c0.688-0.131,1.817-0.557,3.389-1.277c2.226-1.015,3.47-1.523,3.732-1.523
	c3.11-1.343,5.009-2.014,5.697-2.014c0.13,0,0.196-0.049,0.196-0.147c2.095-0.556,3.798-1.326,5.108-2.309l0.295,0.147
	c2.488-0.917,3.929-1.588,4.322-2.014v-0.344c-0.524-0.425-0.786-0.671-0.786-0.737C159.484,37.632,155.261,38.762,148.615,41.022
	L148.615,41.022z M139.627,62.394l-0.147,0.295c-0.164,0-0.262-0.098-0.295-0.295H139.627z M141.199,64.703h0.147v0.295
	l-0.786,0.147h-0.147v-0.147C140.609,64.998,140.871,64.899,141.199,64.703L141.199,64.703z M144.293,66.226v0.147
	c0.523-0.065,0.786-0.213,0.786-0.442h-0.491C144.423,65.931,144.325,66.029,144.293,66.226L144.293,66.226z M136.238,70.893v0.295
	h0.442c0.229,0,0.344-0.098,0.344-0.295v-0.147C136.86,70.844,136.598,70.893,136.238,70.893L136.238,70.893z M132.211,85.583h0.786
	c0.196,0,0.295-0.098,0.295-0.295v-0.147C132.571,85.207,132.211,85.355,132.211,85.583L132.211,85.583z M125.728,87.892
	l-0.147,0.344c-0.196,0-0.312-0.114-0.344-0.344H125.728z"/>
<path fill="#FFFFFF" d="M189.821,38.959c-4.518,1.179-6.778,1.933-6.778,2.26v0.295c0,0.229,0.147,0.344,0.442,0.344v0.147
	c-1.212,0.426-1.817,0.77-1.817,1.032c-0.197,0-0.54-0.098-1.031-0.295l0.295-0.442v-0.147h-0.295l-0.344,0.147
	c0-0.098-0.049-0.147-0.147-0.147h-0.295l-4.666,1.965c-0.361,0.491-0.966,1-1.817,1.523l0.147,0.295l0.737-0.295v0.442
	c-0.786,0.229-1.179,0.475-1.179,0.737c-2.685,1.179-4.453,2.096-5.304,2.751h-0.295v-0.147h0.442v-0.197l-0.147-0.295
	c-0.262,0-0.41,0.263-0.442,0.786l-4.42,3.144c-1.441,0.459-4.502,2.981-9.184,7.566c-0.917,0.819-2.031,2.08-3.34,3.783
	c-0.361,1.147-0.819,1.9-1.375,2.26v0.344c0,0.229,0.147,0.819,0.442,1.769c0.916,0.754,1.375,1.523,1.375,2.309
	c1.277,3.014,3.798,4.52,7.563,4.52h3.487c1.309,0,2.21-0.098,2.701-0.295v0.147c1.309-0.197,2.374-0.295,3.192-0.295
	c10.444-1.736,18.008-2.85,22.69-3.341c0,0.098,0.049,0.147,0.147,0.147c1.277-0.197,2.03-0.295,2.259-0.295
	c2.652,0.098,4.207,0.147,4.666,0.147v0.147c-2.39,2.195-4.355,3.914-5.894,5.159c0.36,0,1.162-0.458,2.406-1.376h0.197
	c-1.638,1.703-3.307,2.867-5.009,3.488h-0.295v-0.147c1.277-0.688,2.128-1.293,2.554-1.818c-0.263,0-0.721,0.246-1.375,0.737
	c-1.31,0.361-1.965,0.77-1.965,1.228c-0.852,0.295-2.259,1.098-4.224,2.407l0.147,0.295c1.146-0.59,1.751-0.983,1.817-1.179
	c0.621-0.065,0.933-0.229,0.933-0.491h0.295c-1.834,1.54-3.094,2.309-3.782,2.309h-0.147v-0.197h0.295v-0.295
	c-0.098,0-0.246,0.049-0.442,0.147l-0.295-0.147c-0.884,0.491-1.343,0.803-1.375,0.934c-1.866,0.95-3.078,1.654-3.634,2.113v0.147
	h0.295c0,0.164-0.295,0.361-0.884,0.59h-0.147v-0.147c0.295,0,0.442-0.098,0.442-0.295v-0.147c-0.459,0-1.866,0.705-4.224,2.113
	l0.147,0.295c0.295,0,0.442-0.147,0.442-0.442h0.295v0.295c-1.441,0.754-2.194,1.212-2.259,1.376v0.147h0.295v0.147h-0.147
	l-0.295-0.147c0,0.263-0.459,0.557-1.375,0.884l-4.224,2.309c-1.866,0.623-2.816,1.065-2.848,1.326h-1.228
	c-0.819,0.263-1.228,0.574-1.228,0.934c-0.884,0.131-1.326,0.328-1.326,0.59c-1.212,0.361-1.817,0.606-1.817,0.737v0.197
	l0.295-0.197h0.147v0.344h-0.737c-0.295,0-0.606,0.098-0.933,0.295l0.147,0.295v0.147h-0.295l-3.192,1.228
	c0-0.098-0.049-0.147-0.147-0.147h-0.147c-2.456,1.245-3.766,1.998-3.929,2.26l-0.295-0.147h-0.147c0,0.459-0.803,1-2.407,1.621
	l-0.344-0.147c0,0.098-0.049,0.147-0.147,0.147l0.147,0.344c-0.098,0-0.246-0.049-0.442-0.147l-1.179,0.884l-0.344-0.147h-0.295
	c0,0.262-0.196,0.41-0.589,0.442c0,0.197,0.147,0.295,0.442,0.295v0.491c0.524,0.295,0.786,0.639,0.786,1.032
	c0.688,0.917,1.031,1.523,1.031,1.818c-0.098,0-0.147,0.049-0.147,0.147v0.147l0.147,0.295c0.916,0.361,1.375,0.77,1.375,1.228
	l0.589-0.147c13.031-5.338,26.34-11.595,39.928-18.768c12.801-6.943,19.203-11.988,19.203-15.132v-0.295l-0.147-0.295
	c0.098,0,0.147-0.049,0.147-0.147c-1.277-2.325-2.031-3.537-2.259-3.636c-2.063-3.931-6.254-5.896-12.573-5.896
	c0,0.098-0.049,0.147-0.147,0.147v-0.147l-0.737,0.147h-0.147c-2.325,0-4.044,0.098-5.157,0.295c0-0.098-0.049-0.147-0.147-0.147
	c-0.098,0-0.147,0.049-0.147,0.147c-5.96,0.557-8.939,1.016-8.939,1.376c-0.098,0-0.245-0.049-0.442-0.147
	c-0.295,0-0.442,0.147-0.442,0.442l-0.344-0.147h-0.442c-0.295,0.164-0.442,0.312-0.442,0.442c-0.098,0-0.246-0.049-0.442-0.147
	l-0.295,0.147c0-0.098-0.049-0.147-0.147-0.147c-0.197,0-0.312,0.098-0.344,0.295c-4.224,0.328-6.336,0.786-6.336,1.376
	l-0.295-0.147h-0.295v0.147c0,0.197-2.374,0.606-7.121,1.228h-1.523l-0.737,0.147c0-0.098-0.147-0.147-0.442-0.147h-0.786
	c0-0.59,1.162-2.162,3.487-4.716c3.045-3.013,6.22-5.633,9.528-7.861c6.941-4.422,13.752-7.697,20.431-9.826
	c5.01-1.408,8.381-2.211,10.117-2.407l0.884,0.147h0.491c1.997,0,2.996-0.246,2.996-0.737v-0.147l-1.67-3.046
	c-0.524-0.983-1.883-1.997-4.076-3.046h-0.295C195.894,37.583,193.52,38.042,189.821,38.959L189.821,38.959z M182.405,41.857h0.491
	v-0.344h-0.491V41.857z M164.577,52.863v0.147c0,0.229-0.098,0.344-0.295,0.344h-0.295C163.988,53.19,164.184,53.027,164.577,52.863
	L164.577,52.863z M159.322,56.646h0.147v0.295h-0.491C158.978,56.777,159.092,56.679,159.322,56.646L159.322,56.646z
	 M158.683,57.137h0.147l-0.295,0.59l-0.295-0.147C158.405,57.284,158.552,57.137,158.683,57.137L158.683,57.137z M150.825,62.541
	l0.147,0.295c0.295-0.131,0.442-0.278,0.442-0.442v-0.147h-0.147L150.825,62.541z M150.383,63.622c0.196,0,0.295-0.098,0.295-0.295
	V63.18h-0.295V63.622z M174.547,66.472v0.147c-0.098,0-0.246,0.066-0.442,0.196h-0.147l0.147-0.344H174.547z M167.033,67.7v0.295
	h-0.491v-0.147C166.672,67.847,166.836,67.798,167.033,67.7L167.033,67.7z M187.856,79.638h0.147c0,0.197-0.098,0.295-0.295,0.295
	h-0.147C187.562,79.77,187.66,79.672,187.856,79.638L187.856,79.638z M182.601,82.537h0.442c-0.164,0.295-0.312,0.442-0.442,0.442
	l-0.344-0.147C182.257,82.669,182.372,82.57,182.601,82.537L182.601,82.537z M180.637,83.569h0.442v0.147
	c0,0.197-0.098,0.295-0.295,0.295h-0.147l-0.344-0.147C180.293,83.7,180.407,83.602,180.637,83.569L180.637,83.569z M179.556,84.355
	h0.295c0,0.196-0.098,0.295-0.295,0.295h-0.295C179.262,84.486,179.36,84.388,179.556,84.355L179.556,84.355z M171.551,87.942
	l0.147,0.344c0.491-0.098,0.737-0.262,0.737-0.491v-0.147C172.173,87.647,171.878,87.745,171.551,87.942L171.551,87.942z
	 M156.424,95.213l0.147,0.295c2.554-1.113,4.42-2.014,5.599-2.702h-0.589L156.424,95.213z M163.693,94.918h0.147
	c0,0.197-0.098,0.295-0.295,0.295h-0.147C163.398,95.049,163.496,94.951,163.693,94.918L163.693,94.918z M146.602,100.814h0.295
	c0.197,0,0.295-0.098,0.295-0.295v-0.147h-0.147C146.749,100.536,146.602,100.683,146.602,100.814L146.602,100.814z
	 M149.303,100.666h0.344c0,0.164-0.213,0.312-0.639,0.442h-0.295C148.714,100.978,148.91,100.831,149.303,100.666L149.303,100.666z"
	/>
<path fill="#FFFFFF" d="M259.097,38.074c-2.62,0.655-4.584,1.31-5.893,1.965c-10.936,4.848-18.303,8.336-22.101,10.465
	c-4.518,2.228-7.154,3.603-7.907,4.127c-2.522,1.049-4.224,1.835-5.108,2.358c-2.816,1.179-4.568,2.179-5.255,2.997l-0.491-0.393
	h-0.196v0.393c-1.114,0.656-1.703,1.245-1.768,1.769c0.523,0.983,0.786,1.703,0.786,2.162c1.67,1.638,2.505,2.751,2.505,3.341
	c0.523,1.049,1.179,1.769,1.964,2.162h0.639c0.753,0,2.242-0.655,4.469-1.965c4.027-1.834,7.105-3.341,9.233-4.52h0.147v0.196
	c-0.262,0-0.754,0.656-1.473,1.965h-0.491c-0.131,0-0.245,0.197-0.344,0.59l0.147,0.393c0,0.131-0.213,0.197-0.639,0.197v0.393
	l0.147,0.393c-0.164,0-0.262,0.131-0.295,0.393l-0.344-0.197h-0.147c0,0.263,0.098,0.393,0.295,0.393
	c0,0.197-1.031,1.786-3.094,4.766c-0.131,0-0.295-0.065-0.491-0.196c-0.361,0-0.704,0.328-1.031,0.983h0.196l0.835-0.786
	c0,0.131-0.066,0.328-0.196,0.59l0.196,0.393c-2.227,3.144-3.389,4.716-3.487,4.716c-1.605,3.014-3.029,4.864-4.273,5.552
	c0,0.263,0.114,0.393,0.344,0.393v0.196c-1.048,0-1.817,0.656-2.308,1.965v0.197h0.147l0.491-0.393v0.197
	c0,0.197-0.213,0.393-0.638,0.59c0-0.131-0.066-0.197-0.196-0.197h-0.147c-3.307,4.323-4.96,6.764-4.96,7.32
	c-0.066,0.262-2.308,1.638-6.728,4.127h-1.67l-1.13-0.197l-0.835,1.179v0.786c0.754,0.983,1.13,1.9,1.13,2.751
	c1.015,0.59,1.687,1.13,2.014,1.621c1.048,2.097,2.145,3.144,3.291,3.144h0.638c0,0.361,0.491,0.688,1.473,0.983
	c1.506-0.622,2.717-1.343,3.634-2.162c0.393,0,1.277-0.983,2.652-2.948h0.147l-0.295,0.786h0.147
	c0.327-0.229,0.491-0.425,0.491-0.59c1.211-1.146,1.817-1.818,1.817-2.014c2.161-0.851,3.307-1.441,3.438-1.769
	c3.733-2.489,5.827-3.734,6.286-3.734v-0.393c-0.066,0-0.459,0.131-1.179,0.393h-0.147v-0.196c5.206-2.915,7.956-4.373,8.251-4.373
	v-0.393l-1.179,0.393h-0.147v-0.197c0.523,0,1.064-0.458,1.621-1.376l0.344,0.197h0.147c0.491-0.655,0.818-0.983,0.982-0.983
	c0.197,0.131,0.425,0.197,0.688,0.197v-0.197l-0.147-0.393h0.295v0.393h0.344c0.229,0,0.344-0.131,0.344-0.393h-0.491v-0.393h0.147
	l0.491,0.393h0.147c0-0.655-0.262-0.983-0.786-0.983v-0.197h0.147c0.622-0.523,1.113-0.786,1.473-0.786l-0.147-0.393l0.982,0.197
	l0.491-0.59l5.108-2.751v-0.393c-0.262,0-0.54-0.131-0.835-0.393c-3.209,1.31-4.846,1.965-4.911,1.965h-0.196
	c0.163-0.36,2.308-1.343,6.434-2.948c0.818-1.211,1.424-1.818,1.817-1.818v-0.393c-0.459,0-0.688-0.131-0.688-0.393
	c-1.441,0.164-2.538,0.491-3.291,0.983l-0.982-0.197c-1.539,0.098-3.242,0.705-5.108,1.818c0-0.131-0.049-0.196-0.147-0.196
	c-0.393,0.328-0.835,0.589-1.326,0.786h-0.147l0.147-0.393v-0.197c-2.161,0.524-4.241,1.31-6.237,2.358h-0.197
	c3.045-4.749,4.649-7.124,4.813-7.124c2.39-4.225,4.142-6.993,5.255-8.303c3.241-5.731,5.599-9.547,7.072-11.447l-0.344-0.59v-1.179
	c4.485-2.227,7.563-3.537,9.233-3.93c1.833-1.179,2.996-1.769,3.487-1.769v-0.393l-0.835,0.196h-0.147v-0.196
	c3.372-1.474,5.501-2.473,6.385-2.997l-0.147-0.393c-0.328,0.229-1.048,0.557-2.161,0.983h-0.147v-0.197
	c2.324-1.048,3.7-1.572,4.125-1.572c0.655-0.655,1.097-0.983,1.326-0.983c0-0.262-0.278-0.393-0.835-0.393l0.147-0.393l0.835,0.197
	v-0.393c-0.426,0-0.638-0.131-0.638-0.393h0.786l0.344,0.197c0-0.164,0.327-0.556,0.982-1.179v-0.197c0-0.36-0.278-0.557-0.835-0.59
	c0-0.131,0.065-0.327,0.197-0.59v-0.197c0-1.146-0.819-1.867-2.456-2.162c-1.31,0-2.194,0.196-2.652,0.59h-0.688v-0.196l0.344-0.59
	v-0.196L259.097,38.074z M260.079,42.005h0.196v0.393h-0.491C259.784,42.169,259.883,42.038,260.079,42.005L260.079,42.005z
	 M263.566,43.184c0.229,0,0.344,0.131,0.344,0.393c-0.131,0-0.295,0.066-0.491,0.196c0-0.262-0.18-0.393-0.54-0.393v-0.196H263.566z
	 M263.075,43.97l-0.835-0.196h-0.344v0.393l-0.786-0.196v-0.196c0.425,0,0.638-0.131,0.638-0.393
	C262.567,43.38,263.009,43.577,263.075,43.97L263.075,43.97z M260.57,44.56v0.393h-0.638V44.56H260.57z M259.784,44.756v0.393
	h-0.196c-0.164,0-0.263-0.131-0.295-0.393H259.784z M258.802,44.953h0.147v0.393c-0.393,0-0.884,0.197-1.473,0.59h-0.344v-0.197
	C257.525,45.739,258.082,45.477,258.802,44.953L258.802,44.953z M252.86,51.487v0.393l0.638-0.196V51.29L252.86,51.487z
	 M214.65,85.436h0.147c0,0.263-0.115,0.393-0.344,0.393h-0.147C214.306,85.6,214.421,85.469,214.65,85.436L214.65,85.436z
	 M236.358,87.008h-0.638v0.393c0.13,0,0.295,0.066,0.491,0.197l0.835-0.197v-0.197c0-0.229-0.115-0.36-0.344-0.393h-0.344V87.008z
	 M237.536,87.205h0.491c0-0.229-0.115-0.36-0.344-0.393h-0.147V87.205z M234.099,87.598h0.147v0.393
	c-0.95,0.393-1.719,0.786-2.308,1.179c-0.328,0-0.491-0.131-0.491-0.393c0-0.327,0.54-0.524,1.621-0.59l-0.147-0.393L234.099,87.598
	z M235.228,87.794c0.163,0,0.376,0.131,0.639,0.393h0.196v-0.197c-0.164-0.393-0.328-0.59-0.491-0.59h-0.344V87.794z
	 M230.955,88.777h0.147c0,0.131,0.049,0.328,0.147,0.59l-1.621,1.179v-0.197c-0.262,0-0.704,0.262-1.326,0.786h-0.147v-0.197
	l0.295-0.59c0.688-0.295,1.031-0.557,1.031-0.786h0.295l0.344,0.197C230.186,89.432,230.464,89.105,230.955,88.777L230.955,88.777z
	 M209.69,92.953h0.147c-0.262,0.524-0.475,0.786-0.639,0.786h-0.491C208.707,93.51,209.034,93.248,209.69,92.953L209.69,92.953z
	 M219.07,100.224h0.197c0.196,0,0.295-0.131,0.295-0.393h-0.491V100.224z"/>
<path fill="#FFFFFF" d="M293.321,39.204c-2.816,2.031-4.224,3.193-4.224,3.488c-2.325,1.736-3.487,2.768-3.487,3.095
	c-3.897,2.981-5.844,4.569-5.844,4.766c-0.131,0-0.197-0.049-0.197-0.147l-0.393,0.147c0,0.131,0.065,0.196,0.197,0.196
	l-0.197,0.393l-0.344-0.196c-0.426,0-2.571,1.474-6.434,4.422v0.344l0.196,0.393c-3.143,2.358-5.108,4.062-5.893,5.11v0.196h0.54
	l0.393-0.196v0.393c-0.131,0-0.312,0.049-0.54,0.147l-0.54-0.344c-4.027,3.112-6.598,5.683-7.711,7.713
	c-0.589,1.572-1.392,2.735-2.406,3.488V72.22h-0.344c-2.423,2.686-4.076,4.897-4.96,6.633c-3.045,4.684-4.944,8.352-5.697,11.005
	l0.147,0.393c-0.229,0.917-0.344,1.769-0.344,2.555v2.751l1.08,3.144h-0.147c0,0.491,1.407,2.014,4.224,4.569
	c1.081,1.769,2.242,3.063,3.487,3.881h0.344v-0.196c-1.834-1.441-2.75-2.358-2.75-2.751h0.393c0,0.295,0.605,0.901,1.817,1.818
	c1.768,1.277,3.733,2.014,5.894,2.211l0.344-0.197l1.08,0.197h1.473c1.08,0,2.733-0.36,4.96-1.081v-0.196l-0.196-0.393h0.196
	l0.393,0.197v-0.197l3.291-2.014c1.604-0.884,2.406-1.425,2.406-1.621h0.54c0.851-0.491,1.277-0.802,1.277-0.933v-0.197
	c-0.131,0-0.196,0.066-0.196,0.197h-0.344v-0.197c0.393,0,1.309-0.606,2.75-1.818c1.572-1.015,2.357-1.637,2.357-1.867l4.42-4.373
	l-0.196-0.934c0.491,0,0.737-0.246,0.737-0.737c0.13,0,0.196,0.066,0.196,0.197l0.737-0.197v-0.344c-0.131,0-0.312,0.049-0.54,0.147
	h-0.196v-0.344c0.491,0,0.737-0.18,0.737-0.54l0.344,0.147h0.197v-0.344l-0.344-0.54c0.229,0,0.589-0.376,1.08-1.13l-0.344-0.54
	c0.589-0.72,1.375-2.129,2.357-4.225l1.13-3.292v-1.474l-0.196-0.393h-0.197c-0.131,0.983-0.311,1.474-0.54,1.474h-0.196
	c0.262-0.72,0.393-1.392,0.393-2.014c0-0.786,0.54-1.277,1.621-1.474c2.161-1.015,4.551-1.932,7.17-2.751v-0.54
	c-0.196,0-1.179,0.377-2.947,1.13h-0.147c0-0.197,0.246-0.393,0.737-0.59c12.671-5.142,19.088-7.713,19.252-7.713v-0.344
	l-2.21,0.737h-0.197v-0.196l6.974-2.751c0.393,0,1.44-0.671,3.143-2.014v-0.196h-0.393l-0.344,0.196v-0.196
	c-0.328,0-0.884,0.18-1.67,0.54c-0.098,0-0.213-0.18-0.344-0.54c0.622-0.131,0.982-0.197,1.081-0.197v-0.344h-0.147
	c-0.426,0-0.868,0.18-1.326,0.54h-0.147v-0.197c0-0.163,0.295-0.344,0.884-0.54c3.372-1.211,5.517-2.243,6.434-3.095l-0.196-0.393
	c-1.081,0.295-1.621,0.54-1.621,0.737l-0.393-0.197h-0.54l-6.778,2.407h-0.196v-0.196c1.702-0.524,2.554-0.884,2.554-1.081
	c4.42-1.343,6.63-2.26,6.63-2.751l0.344,0.197c0.884-0.688,1.326-1.13,1.326-1.327c-0.196-0.36-0.393-0.54-0.589-0.54l-0.344,0.197
	v-0.197l-1.13,0.197l-0.688-0.197c-1.539,0.491-2.473,0.737-2.799,0.737l-0.54-0.344c-0.196,0-0.311,0.115-0.344,0.344l-0.393-0.197
	c-0.197,0-0.312,0.131-0.344,0.393c-0.131,0-0.312-0.065-0.54-0.197c-0.754,0.197-1.13,0.377-1.13,0.54
	c-2.194,0.393-3.422,0.705-3.683,0.933l-0.344-0.197c0,0.263-0.131,0.393-0.393,0.393l-0.344-0.197v0.197
	c-0.721,0.459-1.08,0.754-1.08,0.884c-2.685,0.491-4.469,1.114-5.353,1.867c-0.131,0-0.197-0.065-0.197-0.196
	c-6.188,2.326-11.509,4.406-15.961,6.239c-6.352,2.195-13.818,5.143-22.395,8.844c-4.257,1.507-6.385,2.604-6.385,3.292
	c0,0.131,0.049,0.197,0.147,0.197c1.244,1.933,2.112,2.899,2.603,2.899c0.393,0.754,0.818,1.13,1.277,1.13
	c1.211,1.965,2.423,2.948,3.634,2.948c1.932-0.818,3.47-1.555,4.617-2.211c2.979-0.851,5.55-1.834,7.711-2.948h0.197v0.54
	c-0.622,0-1.736,0.917-3.34,2.751c-2.129,2.621-3.536,4.274-4.224,4.962c-8.644,8.32-15.863,12.479-21.659,12.479l-0.737-0.147
	c-0.491,0-0.737-0.868-0.737-2.604c0-1.179,0.556-3.439,1.67-6.78c2.652-5.699,6.024-10.841,10.117-15.427
	c5.697-6.026,10.641-10.677,14.832-13.953c9.233-7.271,16.404-12.725,21.511-16.36c0-1.376-0.803-3.21-2.407-5.503
	c-0.754-1.31-1.915-2.096-3.487-2.358L293.321,39.204z M318.27,62.885c0,0.131,0.131,0.196,0.393,0.196v0.147
	c-1.343,0.196-2.014,0.442-2.014,0.737h-0.54v-0.147C316.273,63.819,316.993,63.508,318.27,62.885L318.27,62.885z M309.675,63.425
	h0.197c-0.197,0.361-0.393,0.541-0.589,0.541h-0.344C308.939,63.802,309.184,63.622,309.675,63.425L309.675,63.425z M314.439,63.966
	c0.229,0,0.344,0.131,0.344,0.393l0.589-0.393v0.196c0,0.164-0.377,0.41-1.13,0.737h-0.147c0-0.131,0.049-0.311,0.147-0.54
	l-0.147-0.393H314.439z M313.899,64.555v0.147c0,0.263-0.131,0.393-0.393,0.393h-0.147v-0.541H313.899z M311.296,64.899h0.393v0.344
	h-0.737C310.952,65.047,311.067,64.932,311.296,64.899L311.296,64.899z M311.689,65.44h0.344c0,0.262-0.115,0.393-0.344,0.393
	h-0.393C311.296,65.604,311.427,65.473,311.689,65.44L311.689,65.44z M312.622,67.11l-0.197,0.344c-0.196,0-0.328-0.114-0.393-0.344
	H312.622z M294.991,75.02c0,0.229-0.491,0.41-1.473,0.54h-0.197v-0.197C293.517,75.364,294.074,75.25,294.991,75.02L294.991,75.02z
	 M290.227,76.642h0.147v0.196c-0.131,0-0.312,0.066-0.54,0.197h-0.344v-0.197C289.752,76.838,289.997,76.773,290.227,76.642
	L290.227,76.642z M289.294,81.604v0.54h-0.393v-0.54H289.294z M281.387,97.571v0.197h0.393c0-0.131,0.049-0.311,0.147-0.54h-0.147
	C281.55,97.227,281.419,97.342,281.387,97.571L281.387,97.571z"/>
<path fill="#FFFFFF" d="M327.101,37.436c-0.754,0.524-1.179,0.786-1.277,0.786c0.327,0.754,0.491,2.014,0.491,3.783l0.147,0.295
	h-0.147c0.295,5.601,0.605,9.401,0.933,11.398l-1.13,1.572c-0.164,0-0.262-0.098-0.295-0.295c-0.524,0.197-0.786,0.508-0.786,0.934
	c-1.277,1.54-1.915,2.44-1.915,2.702c-1.572,1.867-2.357,2.981-2.357,3.341c-1.375,2.129-2.063,3.39-2.063,3.783
	c-2.063,3.341-3.634,5.601-4.715,6.78c-1.736,2.424-2.685,3.636-2.848,3.636l0.147,0.786c-1.048,0.622-1.572,1.261-1.572,1.916
	c-1.473,1.802-2.489,3.226-3.045,4.274c-1.539,2.751-2.423,4.127-2.652,4.127c-1.342,2.293-2.193,3.554-2.554,3.783
	c-2.684,3.636-4.894,7.697-6.63,12.184v0.295c0.754,0.917,1.13,1.442,1.13,1.572c0.754,0,1.277,0.377,1.572,1.13
	c0.95,0.164,1.424,0.475,1.424,0.933c0.295,0.754,1.031,1.13,2.21,1.13c0.819,0,1.441-0.523,1.866-1.572
	c0-0.197-0.098-0.311-0.295-0.344c0-0.098,0.049-0.147,0.147-0.147c0-0.098-0.049-0.262-0.147-0.491c0-0.327,0.95-2.276,2.849-5.846
	c3.568-5.994,10.739-16.901,21.511-32.721c0,0.721,0.049,1.147,0.147,1.277c-0.098,0-0.147,0.049-0.147,0.147v0.295l0.147,0.934
	l-0.147,0.344l0.147,0.639c0,0.295-0.098,0.442-0.295,0.442c0,0.197,0.098,0.475,0.295,0.835l-0.147,0.295
	c0.098,0.197,0.147,0.41,0.147,0.639l-0.147,1.916l0.295,0.147v0.442c0.327,1.343,0.54,2.833,0.638,4.471l-0.147,0.786
	c0.098,0,0.197,0.41,0.295,1.228l-0.147,0.344c0,0.983,0.474,4.406,1.424,10.268c0.295,3.374,0.605,5.06,0.933,5.06l0.344-0.147
	c0,0.459,0.311,1.933,0.933,4.422c0,1.245,0.523,2.407,1.572,3.488c0.393,0,1.195,0.361,2.406,1.081
	c0.949,1.277,1.997,1.916,3.143,1.916c0.098,0,0.523-0.049,1.277-0.147c1.113-0.557,2.635-3.455,4.568-8.696
	c4.322-11.202,12.131-26.71,23.427-46.527l3.929-7.124v-0.147h-0.295c-0.393,0.263-0.606,0.574-0.638,0.934h-0.197v-0.147
	l0.491-0.934v-0.491c-0.852-0.295-1.277-0.507-1.277-0.639l0.197-0.295c-0.131,0-0.197-0.049-0.197-0.147l-1.081,1.081v-0.442
	l-0.933,0.786v-0.147l0.786-1.277v-0.344c0-0.163-0.115-0.262-0.344-0.295l-0.442,0.295c-1.441,1.704-2.243,2.555-2.406,2.555
	v-0.491c0.425-0.556,0.638-1.032,0.638-1.425h-0.147c-0.852,0.688-1.277,1.163-1.277,1.425c-0.295,0-0.982,0.737-2.063,2.211
	c0.36-0.95,0.737-1.637,1.13-2.063v-0.147h-0.344c-0.95,1.671-1.572,2.572-1.866,2.702c-1.277,2.588-3.078,5.797-5.402,9.63
	c-1.375,1.835-2.734,4.373-4.076,7.615l-4.764,8.844c-1.572,3.177-2.522,4.864-2.849,5.06l0.147,0.344l-1.866,3.439l0.147,0.344
	c-0.655,0.328-1.605,2.014-2.849,5.06l0.147,0.295c-1.015,1.376-2.178,3.963-3.487,7.763h-0.147
	c-1.638-12.61-2.473-22.518-2.505-29.724l-0.196-0.786c0.13,0,0.196-0.065,0.196-0.197c-0.131-0.196-0.196-0.344-0.196-0.442
	c0-2.948-0.147-6.059-0.442-9.335c2.717-4.847,4.878-9.646,6.483-14.395c0-0.295-0.426-0.769-1.277-1.425
	c-0.491-0.917-1.392-1.867-2.701-2.85h-0.295l-0.344,0.147V37.73h-0.147c-0.884,0-1.719,1.638-2.505,4.913h-0.197v-1.769
	c-1.506-1.801-3.078-2.948-4.715-3.439l-0.344,0.147l-0.295-0.147H327.101z M327.543,40.875v0.491h-0.147
	c0-0.098-0.049-0.262-0.147-0.491H327.543z M327.543,41.661v0.835h-0.147c0-0.262-0.049-0.474-0.147-0.639L327.543,41.661z
	 M368.65,45.64v0.147c0,0.23-0.098,0.344-0.295,0.344v-0.196C368.355,45.772,368.454,45.673,368.65,45.64L368.65,45.64z
	 M370.713,46.918v0.147c-0.263,0.623-0.475,0.934-0.638,0.934h-0.147C370.32,47.279,370.582,46.918,370.713,46.918L370.713,46.918z
	 M365.212,47.36v0.344c-0.164,0.295-0.328,0.442-0.491,0.442v-0.295C364.885,47.524,365.048,47.36,365.212,47.36L365.212,47.36z
	 M363.297,50.701c-0.263,0.623-0.475,0.933-0.639,0.933l0.344-0.933H363.297z M360.743,51.487v0.147c0,0.131-0.361,0.819-1.08,2.063
	h-0.147V53.55c0.72-1.244,1.081-1.932,1.081-2.063H360.743z M359.171,54.484c-0.196,0.263-0.295,0.475-0.295,0.639h-0.147v-0.147
	c0.098-0.196,0.147-0.36,0.147-0.491H359.171z M358.729,55.27v0.197c0,0.196-0.115,0.295-0.344,0.295h-0.147
	C358.402,55.434,358.565,55.27,358.729,55.27L358.729,55.27z M316.64,69.518h0.344c0,0.164-0.213,0.328-0.638,0.491v-0.197
	C316.345,69.649,316.443,69.551,316.64,69.518L316.64,69.518z M349.202,72.858c-0.622,1.54-1.097,2.375-1.424,2.506v-0.147
	C348.367,73.939,348.841,73.153,349.202,72.858L349.202,72.858z M329.753,91.037v0.491c-0.164,0-0.262-0.114-0.295-0.344v-0.147
	H329.753z"/>
<g>
	<path fill="#FFFFFF" d="M56.971,2.35V0h-9.189v2.35H51v9.048h2.752V2.35H56.971z"/>
	<path fill="#FFFFFF" d="M76.218,11.398V0h-2.752v4.315h-4.442V0h-2.752v11.398h2.752V6.633h4.442v4.765H76.218z"/>
	<path fill="#FFFFFF" d="M94.564,11.398V9.047h-5.295V6.681h4.731V4.475h-4.731V2.318h5.005V0h-7.66v11.398H94.564z"/>
</g>
<g>
	<g>
		<g>
			<g>
				<path fill="#FFFFFF" d="M402.553,146.229c-0.011-0.014-0.133,0.103,0.03-0.104c0.118-0.181,0.173-0.392,0.144-0.592
					c-0.029-0.19-0.151-0.401-0.248-0.503c-0.201-0.229-0.403-0.361-0.635-0.481l-0.047,0.007c-0.345-0.195-0.707-0.356-1.079-0.502
					c-0.696-0.237-1.391-0.417-2.091-0.57c0.016,0.015,0.022,0.026-0.048,0.014c-0.125-0.026-0.238-0.05-0.365-0.077
					c-0.174-0.096-0.281,0.09-0.418,0.195c-0.153,0.135-0.323,0.285-0.489,0.432l-0.134,0.128c-0.031,0.037-0.034,0.052-0.035,0.062
					c-0.138,0.121-0.263,0.231-0.387,0.34c-0.733,0.701-1.489,1.423-2.266,2.166c-0.452,0.429-0.91,0.864-1.374,1.304l-0.419,0.409
					c-0.053,0.062-0.171,0.146-0.169,0.188l0.313,0.018c0.41,0.023,0.821,0.04,1.229,0.044c0.544-0.021,1.076-0.042,1.456-0.057
					c0.688-0.021,1.566-0.059,2.236-0.138c-0.108-0.068,1.489-0.392,1.144-0.445c0.434-0.08,1.065-0.277,1.086-0.319
					c0.041-0.137,0.423-0.253,1.227-0.921c0.332-0.249,0.592-0.763,0.586-0.904c0.037-0.201-0.207,0.432-0.167,0.226
					c-0.261,0.597-0.964,1.004-1.699,1.266c-0.749,0.259-1.557,0.411-2.373,0.507c-0.817,0.097-1.648,0.139-2.485,0.146
					l-0.913-0.008c-0.012,0.001-0.026,0.001-0.01-0.009l-0.004-0.008c0.023-0.024-0.058,0.046,0.113-0.113
					c0.251-0.231,0.555-0.511,0.898-0.827c0.704-0.642,1.564-1.426,2.443-2.227l0.661-0.6c0.013-0.019,0.03-0.026,0.051-0.015
					l0.405,0.094c0.56,0.136,1.098,0.287,1.582,0.45c0.482,0.163,0.914,0.34,1.232,0.526c0.155,0.091,0.286,0.193,0.344,0.262
					c0.049,0.052,0.03,0.047,0.032,0.07c-0.001,0.008-0.004,0.013-0.01,0.022c0.004,0.014-0.124,0.079-0.186,0.134
					c-0.101,0.046-0.215,0.093-0.332,0.135c-0.253,0.073-0.528,0.123-0.807,0.163c-0.563,0.066-1.124,0.082-1.586,0.097
					c-0.425,0.014-0.859,0.024-1.294,0.019c0.186,0.029,0.369,0.057,0.546,0.085c-0.441-0.025-0.881-0.064-1.052-0.061
					c-0.942-0.048-0.418,0.056-0.061,0.159c0.259,0.054-0.099,0.071,0.308,0.135c-0.295-0.029-0.443-0.043-0.74-0.072
					c-0.037,0.029,0.913,0.071,0.704,0.098c-0.357-0.032-0.619-0.056-0.901-0.082c0.098,0.055,1.024,0.115,0.976,0.146
					c-0.162,0-0.829-0.127-0.891-0.088c-0.012,0.009,0.284,0.042,0.432,0.055c-0.914-0.075-1.423-0.102-0.595,0.053
					c-0.268-0.038-0.692-0.099-1.005-0.144l0.002,0.001c0.141,0.022,0.43,0.068,0.557,0.088l-0.522-0.073l0.089,0.033
					c0.154,0.025,0.282,0.046,0.395,0.065l-0.347-0.048c0.1,0.029,0.197,0.057,0.29,0.084c0.408,0.083,0.8,0.172,1.024,0.193
					c0.905,0.096,1.816,0.168,2.744,0.154c0.465-0.01,0.931-0.03,1.411-0.113C401.537,146.789,402.038,146.753,402.553,146.229z"/>
			</g>
		</g>
	</g>
	<g>
		<g>
			<g>
				<path fill="#FFFFFF" d="M396.739,151.965c-0.019-0.007-0.063,0.136-0.028-0.096c0.03-0.364-0.303-0.678-0.53-0.859
					c-0.184-0.144-0.367-0.259-0.58-0.358l-0.043,0.01c-0.316-0.174-0.647-0.331-0.988-0.482c-0.639-0.247-1.279-0.458-1.922-0.649
					c0.014,0.015,0.019,0.027-0.046,0.011c-0.085-0.025-0.162-0.048-0.246-0.072c-0.142-0.034-0.303-0.108-0.455-0.116
					c-0.178,0.176-0.377,0.373-0.571,0.564l-0.119,0.127c-0.027,0.036-0.028,0.052-0.029,0.061c-0.122,0.12-0.235,0.231-0.346,0.34
					c-0.65,0.698-1.32,1.418-2.011,2.16c-0.404,0.431-0.814,0.867-1.229,1.31l-0.377,0.409l-0.184,0.2
					c0.061,0.017,0.189,0.006,0.279,0.01c0.386-0.003,0.774-0.006,1.165-0.009c0.523-0.037,1.035-0.073,1.394-0.099
					c0.646-0.039,1.472-0.079,2.1-0.155c-0.104-0.074,1.403-0.36,1.08-0.42c0.411-0.065,1.013-0.227,1.035-0.264
					c0.042-0.131,0.409-0.237,1.213-0.793c0.339-0.212,0.525-0.622,0.479-0.735c-0.011-0.119-0.03,0.033-0.058,0.099
					c-0.024,0.085-0.081,0.152-0.066,0.083c-0.138,0.457-0.917,0.81-1.609,1.011c-0.724,0.211-1.492,0.338-2.264,0.431
					c-1.366,0.184-3.847,0.212-3.158,0.184l-0.005-0.007l0.002-0.008l0.004-0.006l0.079-0.083c0.224-0.232,0.494-0.511,0.799-0.826
					c0.628-0.641,1.394-1.424,2.177-2.223l0.458-0.466c0.005-0.011,0.017,0.001,0.025,0l0.099,0.03l0.393,0.123
					c0.519,0.166,1.018,0.339,1.47,0.514c0.451,0.175,0.857,0.352,1.18,0.525c0.159,0.087,0.302,0.171,0.408,0.25
					c0.056,0.041,0.043,0.037,0.057,0.054c0.004,0.006,0.007,0.013,0.008,0.02c-0.002,0.017-0.017,0.029-0.033,0.035
					c-0.016,0.005,0.004,0.003-0.042,0.014l-0.144,0.035c-0.208,0.042-0.491,0.064-0.75,0.068c-0.531,0.006-1.06-0.029-1.494-0.061
					c-0.4-0.023-0.809-0.054-1.216-0.093c0.172,0.045,0.34,0.088,0.504,0.131c-0.411-0.064-0.82-0.139-0.981-0.149
					c-0.88-0.122-0.397,0.022-0.072,0.154c0.237,0.075-0.1,0.062,0.276,0.159c-0.274-0.052-0.412-0.078-0.688-0.131
					c-0.037,0.025,0.85,0.143,0.651,0.154c-0.339-0.062-0.578-0.105-0.837-0.152c0.087,0.062,0.95,0.195,0.902,0.223
					c-0.152-0.015-0.765-0.193-0.827-0.158c-0.013,0.008,0.263,0.063,0.401,0.089c-0.851-0.147-1.326-0.209-0.563,0.006
					c-0.246-0.057-0.64-0.149-0.93-0.217l0.002,0.001c0.129,0.032,0.399,0.099,0.515,0.128l-0.483-0.11l0.08,0.039
					c0.144,0.037,0.263,0.067,0.365,0.093l-0.321-0.073c0.091,0.036,0.18,0.071,0.264,0.105c0.376,0.112,0.734,0.231,0.943,0.27
					c0.839,0.169,1.685,0.315,2.555,0.393c0.433,0.044,0.877,0.055,1.332,0.04c0.236-0.024,0.458-0.035,0.745-0.123
					c0.12-0.006,0.31-0.139,0.479-0.234C396.606,152.315,396.683,152.136,396.739,151.965z"/>
			</g>
		</g>
	</g>
	<g>
		<g>
			<g>
				<path fill="#FFFFFF" d="M388.908,140.384c-0.011-0.038-0.21,0.018,0.066-0.138c0.879-0.472,1.654-0.709,2.533-1.181l0.037-0.087
					c0.697-0.31,1.445-0.643,2.19-0.974l1.013-0.506c0.405-0.21,0.489-0.255,0.849-0.338c0.637-0.162,1.349-0.227,2.049-0.273
					c-0.037-0.02-0.056-0.04,0.084-0.057c0.591-0.021,1.416-0.015,2.275,0.084c0.127,0.007,0.255,0.014,0.38,0.021
					c0.099-0.005,0.126-0.025,0.144-0.037c0.389,0.022,0.733,0.103,1.053,0.152l0.796,0.096l0.395,0.049l0.311,0.066
					c0.163,0.042,0.23,0.071,0.269,0.108c0.052,0.042,0.064,0.116,0.049,0.182c-0.01,0.062-0.099,0.253-0.242,0.445
					c-0.133,0.186-0.294,0.375-0.471,0.552c-0.397,0.38-0.796,0.762-1.198,1.146c-1.64,1.57-3.321,3.181-5.063,4.849
					c-0.721,0.727-1.442,1.454-2.156,2.133c-1.067,0.994-2.475,2.209-3.535,3.156c0.306,0.018-2.195,2.418-1.535,2.121
					c-0.706,0.63-1.767,1.577-1.78,1.672c-0.04,0.286-0.439,0.934-2.231,2.7c-0.713,0.678-1.887,1.632-2.12,1.892
					c-0.366,0.41,1.035-0.757,0.669-0.347c5.473-4.845,10.647-9.618,16.114-14.545c0.449-0.438,1.569-1.475,3.046-2.831
					c0.185-0.169,0.375-0.344,0.57-0.523c0.218-0.185,0.45-0.409,0.663-0.643c0.215-0.243,0.427-0.51,0.62-0.847
					c0.215-0.382,0.402-0.988,0.244-1.508c-0.121-0.513-0.599-0.992-1.062-1.146c-0.246-0.13-0.427-0.174-0.611-0.215
					c-0.199-0.054-0.366-0.082-0.516-0.1c-0.634-0.088-1.274-0.197-1.925-0.271c-1.309-0.112-2.64-0.208-3.96-0.085
					c-0.659,0.051-1.308,0.145-1.965,0.312c-0.174,0.055-0.305,0.072-0.573,0.196l-0.394,0.193c-0.26,0.128-0.516,0.253-0.767,0.376
					c-2.009,0.978-3.688,1.795-4.67,2.272l-0.353,0.176c-2.133,1.033-4.71,2.316-6.474,3.274c-0.776,0.443-1.605,0.916-2.425,1.384
					c0.39-0.149,0.763-0.292,1.108-0.424c-0.853,0.413-1.706,0.826-2.016,1.022c-1.771,0.973-0.696,0.568,0.067,0.36
					c0.53-0.187-0.104,0.235,0.711-0.091c-0.567,0.275-0.852,0.412-1.421,0.688c-0.038,0.087,1.733-0.885,1.384-0.601
					c-0.556,0.246-1.15,0.58-1.718,0.855c0.233-0.021,1.977-0.935,1.926-0.818c-0.297,0.167-1.642,0.68-1.706,0.826
					c-0.013,0.029,0.556-0.246,0.84-0.384c-1.731,0.885-2.65,1.445-1.007,0.764c-0.554,0.269-1.356,0.613-1.934,0.912l0.005-0.001
					c0.289-0.134,0.811-0.376,1.076-0.499l-0.998,0.484l0.193-0.047c0.266-0.121,0.516-0.235,0.767-0.349l-0.663,0.321l0.606-0.19
					c0.815-0.326,1.611-0.607,2.037-0.814C382.022,143.695,385.478,142.034,388.908,140.384z"/>
			</g>
		</g>
	</g>
	<g>
		<g>
			<g>
				<path fill="#FFFFFF" d="M382.162,147.534c-0.012-0.023-0.099,0.004,0.008-0.081c0.344-0.256,0.678-0.373,1.022-0.629
					c0.001-0.017,0.002-0.034,0.003-0.051c0.286-0.168,0.587-0.338,0.892-0.516c0.538-0.362,1.072-0.725,1.601-1.091
					c-0.022-0.003-0.037-0.011,0.014-0.05c0.217-0.156,0.534-0.348,0.857-0.555c0.046-0.033,0.092-0.066,0.137-0.099
					c0.031-0.031,0.033-0.05,0.034-0.061c0.146-0.094,0.276-0.176,0.398-0.251c1.527-1.104,3.071-2.236,4.75-3.456
					c0.345-0.273,0.69-0.546,1.033-0.793c0.514-0.358,1.195-0.774,1.707-1.106c-0.158-0.07,1.044-0.948,0.715-0.908
					c0.341-0.221,0.854-0.553,0.857-0.605c0.011-0.155,0.194-0.447,1.054-1.103c0.343-0.247,0.914-0.561,1.024-0.664
					c0.174-0.162-0.505,0.229-0.331,0.066c-2.647,1.691-5.143,3.401-7.784,5.14c-0.863,0.646-6.91,4.666-8.483,5.669
					c-0.047,0.032-0.094,0.063-0.14,0.095c-0.854,0.553-1.879,1.243-2.568,1.763c-0.311,0.246-0.623,0.502-0.935,0.756
					c0.168-0.082,0.325-0.157,0.463-0.219c-0.342,0.221-0.683,0.443-0.799,0.551c-0.689,0.529-0.239,0.32,0.094,0.219
					c0.224-0.096-0.01,0.138,0.328-0.031c-0.227,0.147-0.341,0.221-0.569,0.369c-0.003,0.052,0.686-0.477,0.566-0.317
					c-0.226,0.13-0.457,0.312-0.684,0.46c0.109-0.005,0.795-0.499,0.791-0.43c-0.115,0.091-0.677,0.356-0.683,0.443
					c-0.001,0.017,0.227-0.13,0.34-0.204c-0.685,0.477-1.033,0.785-0.356,0.428c-0.222,0.144-0.55,0.325-0.779,0.487
					c0,0,0.002,0,0.002,0c0.118-0.075,0.327-0.195,0.435-0.266c-0.133,0.086-0.266,0.173-0.4,0.259
					c0.026-0.006,0.055-0.013,0.085-0.022c0.104-0.058,0.207-0.118,0.311-0.185c-0.088,0.057-0.177,0.114-0.265,0.172
					c0.078-0.025,0.166-0.057,0.26-0.095c0.338-0.17,0.674-0.313,0.845-0.424C379.401,149.32,380.79,148.432,382.162,147.534z"/>
			</g>
		</g>
	</g>
	<g>
		<g>
			<g>
				<path fill="#FFFFFF" d="M392.158,142.367c0.012-0.023,0-0.056,0.04-0.051c0.118,0.029,0.168,0.147,0.287,0.176
					c0.008-0.011,0.017-0.022,0.025-0.034c0.076,0.055,0.153,0.117,0.234,0.176c0.166,0.072,0.333,0.139,0.501,0.203
					c0.002-0.016,0.006-0.029,0.025-0.027c0.072,0.022,0.159,0.079,0.254,0.128c0.015,0.005,0.031,0.009,0.046,0.014
					c0.015-0.003,0.024-0.015,0.029-0.022c0.043,0.022,0.08,0.044,0.114,0.065c0.509,0.15,1.032,0.29,1.595,0.45
					c0.127,0.018,0.253,0.035,0.367,0.069c0.164,0.06,0.354,0.179,0.506,0.256c0.038-0.143,0.444-0.031,0.432-0.2
					c0.101,0.051,0.253,0.128,0.279,0.094c0.076-0.101,0.216-0.193,0.52-0.132c0.114,0.034,0.255,0.158,0.304,0.153
					c0.076-0.008-0.101-0.144-0.025-0.152c-0.773-0.413-1.559-0.723-2.355-1.099c-0.299-0.069-2.142-0.904-2.6-1.151
					c-0.015-0.006-0.029-0.012-0.043-0.018c-0.253-0.128-0.569-0.264-0.81-0.316c-0.114-0.016-0.233-0.026-0.351-0.037
					c0.037,0.044,0.07,0.086,0.097,0.125c-0.101-0.051-0.203-0.102-0.253-0.097c-0.245-0.046-0.152,0.078-0.111,0.207
					c0.042,0.068-0.068,0.09,0.008,0.174c-0.067-0.034-0.101-0.051-0.169-0.085c-0.025,0.034,0.22,0.08,0.143,0.119
					c-0.059-0.045-0.143-0.057-0.211-0.091c0,0.062,0.228,0.13,0.194,0.175c-0.042-0.006-0.16-0.158-0.203-0.102
					c-0.008,0.011,0.059,0.045,0.093,0.062c-0.219-0.08-0.363-0.075-0.203,0.083c-0.066-0.033-0.148-0.104-0.222-0.129
					c0,0,0,0.001,0,0.001c0.034,0.019,0.089,0.06,0.121,0.076c-0.039-0.02-0.079-0.04-0.118-0.06
					c0.002,0.012,0.005,0.024,0.009,0.036c0.026,0.022,0.053,0.042,0.084,0.058c-0.026-0.013-0.052-0.026-0.079-0.04
					c0.01,0.03,0.024,0.06,0.041,0.09c0.076,0.085,0.139,0.186,0.189,0.212C391.341,141.952,391.747,142.168,392.158,142.367z"/>
			</g>
		</g>
	</g>
	<g>
		<g>
			<g>
				<path fill="#FFFFFF" d="M384.474,147.794c0.014-0.021,0.004-0.058,0.047-0.045c0.129,0.051,0.177,0.182,0.307,0.233
					c0.01-0.01,0.02-0.02,0.03-0.03c0.081,0.071,0.163,0.148,0.248,0.224c0.18,0.104,0.36,0.204,0.542,0.3
					c0.003-0.016,0.009-0.029,0.029-0.023c0.078,0.036,0.171,0.11,0.274,0.178c0.017,0.007,0.033,0.015,0.05,0.022
					c0.017,0,0.027-0.011,0.034-0.017c0.046,0.03,0.086,0.06,0.123,0.087c0.555,0.247,1.125,0.488,1.738,0.756
					c0.139,0.041,0.278,0.083,0.402,0.139c0.178,0.092,0.381,0.249,0.545,0.355c0.051-0.14,0.493,0.049,0.49-0.126
					c0.109,0.071,0.272,0.178,0.303,0.148c0.091-0.089,0.251-0.158,0.584-0.04c0.124,0.056,0.273,0.21,0.327,0.213
					c0.085,0.006-0.103-0.166-0.018-0.161c-0.83-0.566-1.681-1.029-2.54-1.562c-0.327-0.126-2.316-1.323-2.808-1.661
					c-0.016-0.009-0.031-0.018-0.047-0.027c-0.272-0.178-0.614-0.376-0.878-0.474c-0.125-0.037-0.257-0.069-0.386-0.102
					c0.038,0.052,0.072,0.101,0.1,0.146c-0.109-0.071-0.218-0.142-0.274-0.146c-0.268-0.093-0.173,0.052-0.135,0.193
					c0.042,0.077-0.081,0.079-0.002,0.18c-0.072-0.047-0.109-0.071-0.182-0.119c-0.03,0.03,0.238,0.122,0.151,0.148
					c-0.063-0.057-0.155-0.085-0.228-0.132c-0.004,0.063,0.244,0.176,0.204,0.216c-0.046-0.014-0.168-0.192-0.218-0.142
					c-0.01,0.01,0.063,0.057,0.099,0.081c-0.238-0.122-0.398-0.144-0.23,0.048c-0.071-0.046-0.157-0.134-0.238-0.173
					c0,0,0,0.001,0,0.001c0.037,0.025,0.095,0.078,0.129,0.101c-0.042-0.028-0.085-0.055-0.128-0.083
					c0.002,0.012,0.004,0.025,0.008,0.038c0.028,0.027,0.057,0.053,0.09,0.075c-0.028-0.018-0.056-0.037-0.085-0.055
					c0.01,0.032,0.023,0.066,0.039,0.1c0.079,0.101,0.142,0.217,0.197,0.252C383.595,147.217,384.031,147.514,384.474,147.794z"/>
			</g>
		</g>
	</g>
	<g>
		<g>
			<g>
				<path fill="#FFFFFF" d="M407.63,153.968c0.03,0.043,0.317-0.197-0.051,0.244c-1.162,1.4-2.425,2.182-3.898,3.194l-0.069,0.136
					c-0.305,0.17-0.613,0.342-0.925,0.515c-0.319,0.158-0.656,0.286-0.986,0.433c-0.652,0.317-1.365,0.503-2.066,0.736
					c-2.591,0.85-5.372,1.015-8.047,0.636c0.065,0.04,0.094,0.072-0.175,0.045c-0.568-0.037-1.21-0.264-1.927-0.422
					c-0.357-0.09-0.709-0.246-1.081-0.371c-0.369-0.134-0.753-0.254-1.112-0.444c-0.219-0.097-0.439-0.193-0.654-0.288
					c-0.175-0.061-0.231-0.055-0.267-0.052c-0.662-0.32-1.198-0.702-1.723-1.003c-3.34-2.153-6.145-5.398-7.463-9.387
					c-1.359-3.947-1.363-8.537,0.336-12.745c0.646-1.81,1.694-3.463,2.868-4.903c1.767-2.13,4.723-4.211,7.268-5.098
					c-0.241-0.036,1.145-0.76,2.551-1.149c1.389-0.421,2.739-0.646,2.049-0.721c1.856-0.234,4.648,0.018,4.795,0.017
					c0.228-0.067,0.728-0.215,1.774-0.055c0.525,0.068,1.203,0.147,2.027,0.41c0.843,0.207,1.823,0.602,2.985,1.15
					c0.438,0.257,0.925,0.543,1.429,0.839c0.48,0.332,0.948,0.703,1.393,1.035c0.862,0.699,1.521,1.384,1.81,1.592
					c0.877,0.697-1.811-1.882-0.938-1.191c-1.427-1.232-3.004-2.302-4.722-3.064c-0.836-0.433-1.739-0.699-2.619-1.017
					c-0.908-0.218-1.805-0.505-2.736-0.603c-3.69-0.598-7.516-0.086-10.947,1.346c-6.914,2.849-11.894,9.83-12.28,17.459
					c-0.08,1.271-0.11,4.517,1.377,8.393c0.76,1.915,1.906,3.953,3.499,5.807c1.583,1.855,3.607,3.527,5.926,4.734
					c2.312,1.215,4.892,1.963,7.438,2.195c2.548,0.245,5.052-0.032,7.255-0.654c2.21-0.618,4.108-1.572,5.639-2.538
					c1.496-1.024,2.635-2.03,3.414-2.825l0.54-0.602c1.632-1.797,3.064-4.137,3.909-6.595c0.867-2.453,1.145-4.976,1.066-7.016
					c-0.082-1.878-0.504-3.749-1.1-5.526c0.189,0.853,0.342,1.647,0.417,2.339c-0.341-1.867-0.98-3.668-1.346-4.301
					c-0.872-1.821-1.263-2.095-1.168-1.851c0.03,0.132,0.155,0.407,0.291,0.745c0.114,0.348,0.241,0.738,0.365,1.118
					c0.189,0.511,0.098,0.444,0.039,0.449c-0.065,0.007-0.059,0.069,0.166,0.88c-0.179-0.578-0.379-0.986-0.571-1.398
					c-0.199-0.408-0.353-0.841-0.68-1.354c-0.036-0.02,0.067,0.17,0.233,0.454c0.14,0.299,0.329,0.7,0.508,1.082
					c0.391,0.752,0.569,1.494,0.387,1.113c-0.369-1.101-0.988-2.254-1.622-3.274c0.044,0.217,0.622,1.085,0.979,1.984
					c0.431,0.864,0.665,1.726,0.593,1.652c-0.14-0.631-1.223-3.14-1.504-3.247c-0.046-0.025,0.574,0.995,0.787,1.557
					c-0.788-1.663-1.687-2.783-2.06-3.177c-0.377-0.397-0.199-0.104,0.666,1.295c-0.288-0.494-0.721-1.035-1.113-1.615
					c-0.436-0.546-0.922-1.065-1.329-1.513l0.005,0.008c0.389,0.464,1.109,1.222,1.425,1.682c-0.402-0.556-0.904-1.034-1.349-1.557
					c0.064,0.099,0.131,0.202,0.199,0.307c0.322,0.398,0.682,0.767,1.004,1.191c-0.268-0.365-0.597-0.682-0.894-1.028
					c0.215,0.299,0.442,0.615,0.679,0.943c0.917,1.33,1.6,2.696,1.953,3.477c1.506,3.118,2.076,6.687,1.595,10.112
					c-0.2,1.719-0.723,3.388-1.428,4.956C409.736,151.231,408.754,152.67,407.63,153.968z"/>
			</g>
		</g>
	</g>
</g>
</svg>
